<?xml version="1.0" encoding="utf-8"?>
<!-- Generator: Adobe Illustrator 22.0.0, SVG Export Plug-In . SVG Version: 6.00 Build 0)  -->
<svg version="1.1" id="Layer_1" xmlns="http://www.w3.org/2000/svg" xmlns:xlink="http://www.w3.org/1999/xlink" x="0px" y="0px"
	 viewBox="0 0 240 60" style="enable-background:new 0 0 240 60;" xml:space="preserve">
<style type="text/css">
	.st0{fill:#FFFFFF;}
	.st1{fill:none;stroke:#D99D57;stroke-width:0.838;stroke-miterlimit:10;}
	.st2{fill:none;stroke:#FFFFFF;stroke-width:0.2793;stroke-miterlimit:10;}
	.st3{fill:none;stroke:#FFFFFF;stroke-width:4.007652e-02;stroke-miterlimit:10;}
	.st4{fill:none;stroke:#FFFFFF;stroke-width:0.5554;stroke-miterlimit:10;}
	.st5{fill:none;stroke:#FFFFFF;stroke-width:0.5471;stroke-miterlimit:10;}
	.st6{fill:none;stroke:#FFFFFF;stroke-width:0.561;stroke-miterlimit:10;}
	.st7{fill:none;stroke:#FFFFFF;stroke-width:0.5333;stroke-miterlimit:10;}
	.st8{fill:none;stroke:#FFFFFF;stroke-width:6.582999e-02;stroke-miterlimit:10;}
	.st9{fill:none;stroke:#FFFFFF;stroke-width:0.1251;stroke-miterlimit:10;}
	.st10{fill:none;stroke:#FFFFFF;stroke-width:0.1326;stroke-miterlimit:10;}
	.st11{fill:none;stroke:#FFFFFF;stroke-width:0.1368;stroke-miterlimit:10;}
	.st12{fill:#292561;}
	.st13{fill:#D99D57;}
	.st14{fill:#282560;}
	.st15{fill:#293543;}
	.st16{fill:none;stroke:#EB2027;stroke-width:4.007652e-02;stroke-miterlimit:10;}
	.st17{fill:#FFFFFF;stroke:#292561;stroke-width:0.5554;stroke-miterlimit:10;}
	.st18{fill:#FFFFFF;stroke:#292561;stroke-width:0.5471;stroke-miterlimit:10;}
	.st19{fill:#A70829;}
	.st20{fill:#FFFFFF;stroke:#292561;stroke-width:0.561;stroke-miterlimit:10;}
	.st21{fill:#FFFFFF;stroke:#292561;stroke-width:0.5333;stroke-miterlimit:10;}
	.st22{fill:none;stroke:#D12027;stroke-width:6.582999e-02;stroke-miterlimit:10;}
	.st23{fill:#292561;stroke:#FFFFFF;stroke-width:0.1251;stroke-miterlimit:10;}
	.st24{fill:#292561;stroke:#FFFFFF;stroke-width:0.1326;stroke-miterlimit:10;}
	.st25{fill:#292561;stroke:#FFFFFF;stroke-width:0.1368;stroke-miterlimit:10;}
	.st26{fill:#D99D57;stroke:#292561;stroke-width:0.2793;stroke-miterlimit:10;}
	.st27{fill:#292561;stroke:#292561;stroke-width:0.2793;stroke-miterlimit:10;}
</style>
<g>
	<g>
		<g>
			<path class="st0" d="M76.7,42.2V35c0-0.3,0-0.5,0.1-0.8c0.1-0.3,0.2-0.6,0.5-0.9c0.2-0.3,0.5-0.5,0.9-0.7
				c0.4-0.1,0.8-0.2,1.3-0.2c0.4,0,0.7,0,1,0.1c0.3,0.1,0.5,0.2,0.7,0.4c0.2,0.2,0.4,0.3,0.5,0.5c0.1,0.2,0.2,0.4,0.3,0.6
				c0.1,0.2,0.1,0.4,0.2,0.6c0,0.2,0,0.3,0,0.4v7.2h-1.9V39h-1.8v3.2C78.5,42.2,76.7,42.2,76.7,42.2z M78.6,37.2h1.8v-2
				c0-0.2,0-0.4-0.1-0.6c-0.1-0.2-0.2-0.3-0.3-0.4c-0.1-0.1-0.3-0.1-0.5-0.1c-0.3,0-0.5,0.1-0.6,0.2c-0.1,0.2-0.2,0.3-0.2,0.5
				s0,0.3,0,0.4L78.6,37.2L78.6,37.2z"/>
			<path class="st0" d="M86.1,42.5c-0.4,0-0.8,0-1.1-0.1s-0.6-0.2-0.8-0.4c-0.2-0.2-0.4-0.3-0.5-0.5c-0.1-0.2-0.2-0.4-0.3-0.6
				c-0.1-0.2-0.1-0.4-0.2-0.6c0-0.2,0-0.3,0-0.4V39h1.9v0.8c0,0.1,0,0.2,0,0.3s0.1,0.2,0.1,0.4c0.1,0.1,0.2,0.2,0.3,0.3
				s0.3,0.1,0.5,0.1c0.3,0,0.5-0.1,0.6-0.2s0.2-0.3,0.3-0.5c0-0.2,0-0.3,0-0.4v-0.3c0-0.2,0-0.4-0.1-0.5c-0.1-0.1-0.2-0.2-0.4-0.3
				c-0.2-0.1-0.3-0.2-0.5-0.2l-1-0.3c-0.4-0.1-0.8-0.3-1.1-0.5c-0.3-0.2-0.5-0.5-0.6-0.8C83.1,36.6,83,36.3,83,36v-0.8
				c0-0.3,0-0.5,0.1-0.8s0.2-0.6,0.5-0.9c0.2-0.3,0.5-0.5,0.9-0.7c0.4-0.1,0.8-0.2,1.3-0.2c0.6,0,1.1,0.1,1.5,0.3
				c0.4,0.2,0.7,0.5,0.9,0.8s0.3,0.6,0.4,0.9c0.1,0.3,0.1,0.5,0.1,0.6v1h-1.9v-0.8c0-0.2,0-0.4-0.1-0.6c-0.1-0.2-0.2-0.3-0.3-0.4
				c-0.1-0.1-0.3-0.1-0.5-0.1s-0.4,0-0.5,0.1s-0.2,0.2-0.3,0.3C85,34.8,85,34.9,85,35s0,0.2,0,0.3v0.4c0,0.1,0,0.2,0,0.3
				s0.1,0.2,0.2,0.3s0.2,0.2,0.3,0.2c0.1,0.1,0.3,0.1,0.5,0.2l1,0.3c0.3,0.1,0.5,0.2,0.7,0.3s0.4,0.3,0.6,0.5s0.3,0.4,0.4,0.6
				c0.1,0.2,0.1,0.5,0.1,0.9v0.5c0,0.2,0,0.4-0.1,0.7c-0.1,0.3-0.2,0.5-0.3,0.8c-0.2,0.3-0.4,0.5-0.6,0.7c-0.3,0.2-0.5,0.3-0.8,0.4
				C86.8,42.4,86.4,42.5,86.1,42.5z"/>
			<path class="st0" d="M89.9,42.2v-8.9c0-0.2,0.1-0.4,0.2-0.5c0.1-0.1,0.3-0.2,0.5-0.2h1.2v9.6H89.9z"/>
			<path class="st0" d="M92.9,42.2V35c0-0.3,0-0.5,0.1-0.8c0.1-0.3,0.2-0.6,0.5-0.9c0.2-0.3,0.5-0.5,0.9-0.7
				c0.4-0.1,0.8-0.2,1.3-0.2c0.4,0,0.7,0,1,0.1c0.3,0.1,0.5,0.2,0.7,0.4c0.2,0.2,0.4,0.3,0.5,0.5c0.1,0.2,0.2,0.4,0.3,0.6
				c0.1,0.2,0.1,0.4,0.2,0.6c0,0.2,0,0.3,0,0.4v7.2h-1.9V39h-1.8v3.2C94.7,42.2,92.9,42.2,92.9,42.2z M94.8,37.2h1.8v-2
				c0-0.2,0-0.4-0.1-0.6c-0.1-0.2-0.2-0.3-0.3-0.4c-0.1-0.1-0.3-0.1-0.5-0.1c-0.3,0-0.5,0.1-0.6,0.2c-0.1,0.2-0.2,0.3-0.2,0.5
				s0,0.3,0,0.4v2H94.8z"/>
			<path class="st0" d="M105,42.5c-0.4,0-0.8,0-1.1-0.1s-0.6-0.2-0.8-0.4c-0.2-0.2-0.4-0.3-0.5-0.5c-0.1-0.2-0.2-0.4-0.3-0.6
				c-0.1-0.2-0.1-0.4-0.2-0.6c0-0.2,0-0.3,0-0.4v-4.8c0-0.3,0-0.5,0.1-0.8c0.1-0.3,0.2-0.6,0.5-0.9c0.2-0.3,0.5-0.5,0.9-0.7
				c0.4-0.1,0.8-0.2,1.3-0.2c0.6,0,1.1,0.1,1.5,0.3c0.4,0.2,0.7,0.5,0.9,0.8c0.2,0.3,0.3,0.6,0.4,0.9c0.1,0.3,0.1,0.5,0.1,0.6v1.4
				h-1.9v-1.2c0-0.2,0-0.4-0.1-0.5c-0.1-0.2-0.2-0.3-0.3-0.4c-0.1-0.1-0.3-0.1-0.5-0.1s-0.4,0-0.5,0.1c-0.1,0.1-0.2,0.2-0.3,0.3
				s-0.1,0.2-0.1,0.4c0,0.1,0,0.2,0,0.3v4.4c0,0.1,0,0.2,0,0.3s0.1,0.2,0.1,0.4c0.1,0.1,0.2,0.2,0.3,0.3c0.1,0.1,0.3,0.1,0.5,0.1
				c0.3,0,0.5-0.1,0.6-0.2c0.1-0.1,0.2-0.3,0.3-0.5c0-0.2,0-0.3,0-0.4v-1.2h1.9v1.2c0,0.3,0,0.5-0.1,0.8c-0.1,0.3-0.3,0.6-0.5,0.9
				c-0.2,0.3-0.6,0.5-0.9,0.7C105.8,42.4,105.4,42.5,105,42.5z"/>
			<path class="st0" d="M108.7,42.2v-8.9c0-0.2,0.1-0.4,0.2-0.5c0.1-0.1,0.3-0.2,0.5-0.2h1.2v3.6h1.7v-3.6h1.9v9.6h-1.9V38h-1.8v4.2
				C110.5,42.2,108.7,42.2,108.7,42.2z"/>
			<path class="st0" d="M115.3,42.2V35c0-0.3,0-0.5,0.1-0.8c0.1-0.3,0.2-0.6,0.5-0.9c0.2-0.3,0.5-0.5,0.9-0.7
				c0.4-0.1,0.8-0.2,1.3-0.2c0.4,0,0.7,0,1,0.1c0.3,0.1,0.5,0.2,0.7,0.4c0.2,0.2,0.4,0.3,0.5,0.5c0.1,0.2,0.2,0.4,0.3,0.6
				c0.1,0.2,0.1,0.4,0.2,0.6c0,0.2,0,0.3,0,0.4v7.2h-1.9V39h-1.8v3.2C117.1,42.2,115.3,42.2,115.3,42.2z M117.2,37.2h1.8v-2
				c0-0.2,0-0.4-0.1-0.6c-0.1-0.2-0.2-0.3-0.3-0.4c-0.1-0.1-0.3-0.1-0.5-0.1c-0.3,0-0.5,0.1-0.6,0.2c-0.1,0.2-0.2,0.3-0.2,0.5
				s0,0.3,0,0.4v2H117.2z"/>
			<path class="st0" d="M121.9,42.2v-8.9c0-0.2,0.1-0.4,0.2-0.5c0.1-0.1,0.3-0.2,0.5-0.2h1.3l1.8,5.1l1.8-5.1h1.3
				c0.2,0,0.4,0.1,0.5,0.2c0.1,0.1,0.2,0.3,0.2,0.5v8.9h-1.8v-5.7l-1.4,4.3h-1.2l-1.4-4.3v5.7H121.9z"/>
			<path class="st0" d="M130.7,42.2v-8.9c0-0.2,0.1-0.4,0.2-0.5c0.1-0.1,0.3-0.2,0.5-0.2h2.1c0.5,0,0.9,0.1,1.3,0.2
				c0.4,0.1,0.6,0.3,0.9,0.6c0.2,0.3,0.4,0.6,0.5,0.9c0.1,0.4,0.2,0.8,0.2,1.2s-0.1,0.8-0.2,1.2c-0.1,0.4-0.3,0.7-0.5,1
				s-0.5,0.5-0.9,0.6c-0.4,0.2-0.8,0.2-1.3,0.2h-0.8v3.6h-2V42.2z M132.5,37h0.8c0.2,0,0.4-0.1,0.6-0.2c0.2-0.1,0.3-0.3,0.4-0.5
				c0.1-0.2,0.1-0.4,0.1-0.6c0-0.5-0.1-0.8-0.3-1c-0.2-0.2-0.4-0.3-0.8-0.3h-0.8C132.5,34.5,132.5,37,132.5,37z"/>
			<path class="st0" d="M137.1,42.2v-8.9c0-0.2,0.1-0.4,0.2-0.5c0.1-0.1,0.3-0.2,0.5-0.2h1.2v9.6H137.1z"/>
			<path class="st0" d="M142.9,42.5c-0.4,0-0.8,0-1.1-0.1c-0.3-0.1-0.6-0.2-0.8-0.4c-0.2-0.2-0.4-0.3-0.5-0.5
				c-0.1-0.2-0.2-0.4-0.3-0.6c-0.1-0.2-0.1-0.4-0.2-0.6c0-0.2,0-0.3,0-0.4v-4.8c0-0.3,0-0.5,0.1-0.8c0.1-0.3,0.3-0.6,0.5-0.9
				s0.5-0.5,0.9-0.6c0.4-0.1,0.8-0.2,1.3-0.2c0.6,0,1.1,0.1,1.5,0.3c0.4,0.2,0.7,0.5,0.9,0.8c0.2,0.3,0.3,0.6,0.4,0.9
				c0.1,0.3,0.1,0.5,0.1,0.6v4.6c0,0.2,0,0.4-0.1,0.7c-0.1,0.3-0.2,0.5-0.3,0.8c-0.2,0.3-0.4,0.5-0.6,0.7c-0.3,0.2-0.5,0.3-0.8,0.4
				C143.5,42.4,143.2,42.5,142.9,42.5z M142.9,40.8c0.3,0,0.5-0.1,0.6-0.2c0.1-0.1,0.2-0.3,0.3-0.5s0-0.3,0-0.4v-4.4
				c0-0.2,0-0.4-0.1-0.6c-0.1-0.2-0.2-0.3-0.3-0.4c-0.1-0.1-0.3-0.1-0.5-0.1c-0.3,0-0.5,0.1-0.6,0.2c-0.1,0.1-0.2,0.3-0.3,0.5
				s0,0.3,0,0.4v4.4c0,0.1,0,0.2,0,0.3s0.1,0.2,0.1,0.4c0.1,0.1,0.2,0.2,0.3,0.3S142.7,40.8,142.9,40.8z"/>
			<path class="st0" d="M146.7,42.2v-8.9c0-0.2,0.1-0.4,0.2-0.5c0.1-0.1,0.3-0.2,0.5-0.2h1.1l2.1,5.4v-5.4h1.8v9.6h-1.6l-2.3-5.7
				v5.7H146.7z"/>
			<path class="st0" d="M156.3,42.5c-0.4,0-0.8,0-1.1-0.1s-0.6-0.2-0.8-0.4s-0.4-0.3-0.5-0.5s-0.2-0.4-0.3-0.6
				c-0.1-0.2-0.1-0.4-0.2-0.6c0-0.2,0-0.3,0-0.4V39h1.9v0.8c0,0.1,0,0.2,0,0.3s0.1,0.2,0.1,0.4s0.2,0.2,0.3,0.3s0.3,0.1,0.5,0.1
				c0.3,0,0.5-0.1,0.6-0.2c0.2-0.1,0.2-0.3,0.3-0.5c0-0.2,0-0.3,0-0.4v-0.3c0-0.2,0-0.4-0.1-0.5s-0.2-0.2-0.4-0.3s-0.3-0.2-0.5-0.2
				l-1-0.3c-0.4-0.1-0.8-0.3-1.1-0.5s-0.5-0.5-0.6-0.8s-0.2-0.6-0.2-0.9v-0.8c0-0.3,0-0.5,0.1-0.8s0.2-0.6,0.5-0.9
				c0.2-0.3,0.5-0.5,0.9-0.7c0.4-0.1,0.8-0.2,1.3-0.2c0.6,0,1.1,0.1,1.5,0.3c0.4,0.2,0.7,0.5,0.9,0.8s0.3,0.6,0.4,0.9
				s0.1,0.5,0.1,0.6v1H157v-0.8c0-0.2,0-0.4-0.1-0.6c-0.1-0.2-0.2-0.3-0.3-0.4c-0.1-0.1-0.3-0.1-0.5-0.1s-0.4,0-0.5,0.1
				s-0.2,0.2-0.3,0.3s-0.1,0.2-0.1,0.3s0,0.2,0,0.3v0.4c0,0.1,0,0.2,0,0.3s0.1,0.2,0.2,0.3c0.1,0.1,0.2,0.2,0.3,0.2s0.3,0.1,0.5,0.2
				l1,0.3c0.3,0.1,0.5,0.2,0.7,0.3s0.4,0.3,0.6,0.5s0.3,0.4,0.4,0.6c0.1,0.2,0.1,0.5,0.1,0.9v0.5c0,0.2,0,0.4-0.1,0.7
				s-0.2,0.5-0.3,0.8s-0.4,0.5-0.6,0.7c-0.3,0.2-0.5,0.3-0.8,0.4C156.9,42.4,156.6,42.5,156.3,42.5z"/>
			<path class="st0" d="M165.5,42.5c-0.4,0-0.8,0-1.1-0.1s-0.6-0.2-0.8-0.4s-0.4-0.3-0.5-0.5s-0.2-0.4-0.3-0.6
				c-0.1-0.2-0.1-0.4-0.2-0.6c0-0.2,0-0.3,0-0.4v-4.8c0-0.3,0-0.5,0.1-0.8s0.2-0.6,0.5-0.9c0.2-0.3,0.5-0.5,0.9-0.7
				c0.4-0.1,0.8-0.2,1.3-0.2c0.6,0,1.1,0.1,1.5,0.3c0.4,0.2,0.7,0.5,0.9,0.8s0.3,0.6,0.4,0.9s0.1,0.5,0.1,0.6v1.4h-1.9v-1.2
				c0-0.2,0-0.4-0.1-0.5c-0.1-0.2-0.2-0.3-0.3-0.4c-0.1-0.1-0.3-0.1-0.5-0.1s-0.4,0-0.5,0.1s-0.2,0.2-0.3,0.3s-0.1,0.2-0.1,0.4
				c0,0.1,0,0.2,0,0.3v4.4c0,0.1,0,0.2,0,0.3s0.1,0.2,0.1,0.4c0.1,0.1,0.2,0.2,0.3,0.3s0.3,0.1,0.5,0.1c0.3,0,0.5-0.1,0.6-0.2
				c0.1-0.1,0.2-0.3,0.3-0.5c0-0.2,0-0.3,0-0.4v-1.2h1.9v1.2c0,0.3,0,0.5-0.1,0.8s-0.3,0.6-0.5,0.9c-0.2,0.3-0.6,0.5-0.9,0.7
				C166.4,42.4,166,42.5,165.5,42.5z"/>
			<path class="st0" d="M171.9,42.5c-0.4,0-0.7,0-1-0.1s-0.5-0.2-0.7-0.4s-0.4-0.3-0.5-0.5s-0.2-0.4-0.3-0.6
				c-0.1-0.2-0.1-0.4-0.2-0.6c0-0.2,0-0.3,0-0.4v-6.5c0-0.2,0.1-0.4,0.2-0.5c0.1-0.1,0.3-0.2,0.5-0.2h1.2v7c0,0.1,0,0.2,0,0.3
				s0.1,0.2,0.1,0.4c0.1,0.1,0.2,0.2,0.3,0.3s0.3,0.1,0.5,0.1c0.3,0,0.5-0.1,0.6-0.2c0.1-0.2,0.2-0.3,0.2-0.5s0-0.3,0-0.4v-7h1.9
				v7.1c0,0.2,0,0.5-0.1,0.8s-0.3,0.6-0.5,0.9s-0.5,0.5-0.9,0.7C172.8,42.4,172.4,42.5,171.9,42.5z"/>
			<path class="st0" d="M175.7,42.2v-8.9c0-0.2,0.1-0.4,0.2-0.5c0.1-0.1,0.3-0.2,0.5-0.2h2.1c0.5,0,0.9,0.1,1.3,0.2
				c0.4,0.1,0.6,0.3,0.9,0.6s0.4,0.6,0.5,0.9c0.1,0.4,0.2,0.8,0.2,1.2s-0.1,0.8-0.2,1.2c-0.1,0.4-0.3,0.7-0.5,1s-0.5,0.5-0.9,0.6
				c-0.4,0.2-0.8,0.2-1.3,0.2h-0.8v3.6h-2V42.2z M177.6,37h0.8c0.2,0,0.4-0.1,0.6-0.2s0.3-0.3,0.4-0.5s0.1-0.4,0.1-0.6
				c0-0.5-0.1-0.8-0.3-1s-0.4-0.3-0.8-0.3h-0.8V37z"/>
		</g>
		<g>
			<path class="st0" d="M120.2,20v2h2.7v1.8h-2.7v4h-1.9v-9c0-0.5,0.2-0.7,0.7-0.7h4.4V20C123.4,20,120.2,20,120.2,20z"/>
			<path class="st0" d="M124.1,27.8v-9c0-0.5,0.2-0.7,0.7-0.7h1.2v9.7H124.1z"/>
			<path class="st0" d="M129.9,27.8H127v-9c0-0.5,0.2-0.7,0.7-0.7h2.2c1.9,0,2.9,1.2,2.9,2.5c0,1.5-0.7,2-1.1,2.2
				c0.5,0.2,1.2,0.8,1.2,2.1C132.8,26.8,131.6,27.8,129.9,27.8z M129.7,19.8h-0.8v2.3h0.8c0.7,0,1.1-0.4,1.1-1.2
				C130.8,20.2,130.4,19.8,129.7,19.8z M129.7,23.7h-0.8v2.4h0.8c0.7,0,1.1-0.4,1.1-1.2C130.9,24.1,130.4,23.7,129.7,23.7z"/>
			<path class="st0" d="M137.4,27.8v-3.2h-1.8v3.2h-1.9v-7.2c0-0.7,0.4-2.6,2.8-2.6c2.4,0,2.8,1.9,2.8,2.6v7.2H137.4z M137.4,20.8
				c0-0.4-0.1-1.1-0.9-1.1s-0.9,0.7-0.9,1.1v2h1.8V20.8z"/>
		</g>
		<g>
			<path class="st0" d="M96.1,54.5h-2.9v-8.9c0-0.5,0.2-0.7,0.7-0.7h2.2c1.9,0,2.9,1.2,2.9,2.5c0,1.5-0.7,2-1.1,2.2
				c0.5,0.2,1.2,0.8,1.2,2.1C98.9,53.6,97.7,54.5,96.1,54.5z M95.8,46.5H95v2.3h0.8c0.7,0,1.1-0.4,1.1-1.2
				C96.9,46.9,96.5,46.5,95.8,46.5z M95.8,50.5H95V53h0.8c0.7,0,1.1-0.4,1.1-1.2S96.5,50.5,95.8,50.5z"/>
			<path class="st0" d="M103.5,54.5v-3.2h-1.8v3.2h-1.9v-7.2c0-0.7,0.4-2.6,2.8-2.6c2.4,0,2.8,1.9,2.8,2.6v7.2H103.5z M103.5,47.5
				c0-0.4-0.1-1.1-0.9-1.1s-0.9,0.7-0.9,1.1v2h1.8V47.5z"/>
			<path class="st0" d="M110.5,54.5l-2.2-5.7v5.7h-1.8v-8.9c0-0.5,0.2-0.7,0.7-0.7h1.1l2.1,5.4V45h1.8v9.6
				C112.2,54.6,110.5,54.6,110.5,54.5z"/>
			<path class="st0" d="M116,54.8c-2.4,0-2.8-1.9-2.8-2.6v-4.8c0-0.7,0.4-2.6,2.8-2.6c2.4,0,2.8,1.9,2.8,2.6v1h-1.9v-0.8
				c0-0.4-0.1-1.1-0.9-1.1s-0.9,0.7-0.9,1.1V52c0,0.4,0.1,1.1,0.9,1.1s0.9-0.7,0.9-1.1v-1h-0.8v-1.5h2.7v2.7
				C118.8,52.9,118.4,54.8,116,54.8z"/>
			<path class="st0" d="M123.6,54.5l-2-4.4v4.4h-1.9v-8.9c0-0.5,0.2-0.7,0.7-0.7h1.2V49l2-4.1h2l-2.2,4.5l2.3,5.1H123.6z"/>
			<path class="st0" d="M128.9,54.8c-2.4,0-2.9-1.9-2.9-2.6v-4.8c0-0.7,0.4-2.6,2.9-2.6s2.9,1.9,2.9,2.6v4.8
				C131.8,52.9,131.4,54.8,128.9,54.8z M129.9,47.5c0-0.4-0.1-1.1-1-1.1c-0.9,0-1,0.7-1,1.1V52c0,0.4,0.1,1.1,1,1.1
				c0.9,0,1-0.7,1-1.1V47.5z"/>
			<path class="st0" d="M136.6,54.5l-2-4.4v4.4h-1.9v-8.9c0-0.5,0.2-0.7,0.7-0.7h1.2V49l2-4.1h2l-2.2,4.5l2.3,5.1H136.6z"/>
			<path class="st0" d="M145.6,50.8l-0.5,0.3c-0.7,0.4-1.3,0.7-1.3,1.5v0.2h3.6v1.8h-5.6V53c0-1.7,0.8-2.5,1.9-3.1l0.6-0.3
				c0.8-0.5,1.2-0.9,1.2-1.8c0-0.5-0.1-1.3-0.9-1.3s-0.9,0.7-0.9,1.1v0.8h-1.9v-0.8c0-0.9,0.4-2.7,2.9-2.7c2.4,0,2.8,1.6,2.8,3
				C147.4,49.4,146.8,50,145.6,50.8z"/>
			<path class="st0" d="M151.1,54.8c-2.4,0-2.9-1.9-2.9-2.9v-4.3c0-1,0.4-2.9,2.9-2.9s2.9,1.9,2.9,2.9v4.3
				C154,52.8,153.5,54.8,151.1,54.8z M152,47.8c0-0.5-0.1-1.3-1-1.3c-0.9,0-1,0.8-1,1.3v4c0,0.5,0.1,1.3,1,1.3c0.9,0,1-0.8,1-1.3
				V47.8z"/>
			<path class="st0" d="M156.3,54.5v-7.3l-1.7,1.2v-2l1.6-1.2c0.2-0.2,0.5-0.3,0.9-0.3h1v9.6C158.1,54.6,156.3,54.6,156.3,54.5z"/>
			<path class="st0" d="M162.1,54.8c-2.1,0-2.7-1.1-2.7-2.4v-0.6h1.9V52c0,0.4,0,1.1,0.8,1.1s0.9-0.6,0.9-1.2v-1.2
				c-0.1,0.2-0.6,0.5-1.3,0.5c-2,0-2.5-1.4-2.5-3.2c0-1.5,0.5-3.2,2.8-3.2c2.4,0,2.9,1.6,2.9,2.7v4.4
				C164.9,52.9,164.5,54.8,162.1,54.8z M163,47.8c0-0.7-0.1-1.3-1-1.3c-0.8,0-1,0.6-1,1.5s0.1,1.5,1,1.5c0.8,0,1-0.6,1-1.3V47.8z"/>
		</g>
		<path class="st1" d="M114.3,22.1c1.6-6.7,7.6-11.4,14.3-11.5c7.1-0.1,13.3,5,14.7,12"/>
		<path class="st1" d="M114.3,22.1c2.5-6,8.6-9.9,15-9.6c6.3,0.2,11.8,4.2,14.1,10.2"/>
	</g>
	<g>
		<g>
			<g>
				<g>
					<circle class="st0" cx="217.7" cy="16.9" r="6.3"/>
					<circle class="st2" cx="217.7" cy="16.9" r="6.3"/>
				</g>
				<g>
					<g>
						<circle class="st0" cx="217.8" cy="17.1" r="5.8"/>
						<g>
							<path class="st0" d="M217.8,11.5c3.1,0,5.6,2.5,5.6,5.6s-2.5,5.6-5.6,5.6s-5.6-2.5-5.6-5.6S214.7,11.5,217.8,11.5
								 M217.8,11.2c-3.3,0-5.9,2.6-5.9,5.9s2.6,5.9,5.9,5.9s5.9-2.6,5.9-5.9S221,11.2,217.8,11.2L217.8,11.2z"/>
						</g>
					</g>
					<g>
						<path class="st0" d="M218.7,21.5c0,0,0,0,0-0.2c-0.1,0.2-0.2,0.3-0.3,0.5c-0.2,0.2-0.6,0.7-1.6,0.9c-0.2,0-0.4,0.1-0.7,0.1
							h-0.2h-0.1c-0.1,0-0.2-0.1-0.4-0.1l0.3-1.5c0.1,0,0.2,0,0.3,0c0.4-0.1,0.8-0.3,0.9-0.4c-0.3,0-0.6,0-0.9,0c-0.1,0-0.2,0-0.3,0
							c-0.6,0-1.2-0.1-1.7-0.2l-0.2-0.1c-0.2-0.1-0.4-0.1-0.6-0.2c-0.5-0.2-0.8-0.5-1-0.8l-0.1-0.1v-0.1c0-0.1-0.1-0.2-0.1-0.3
							l-0.8-2.6l2.1,1.8c0.1,0.1,0.2,0.1,0.3,0.2l0.1,0.1c0.6,0.3,1.4,0.5,2.4,0.5c0.2,0,0.3,0,0.5,0c-0.4-0.6-1.1-1.1-2-1.7
							c-0.3-0.2-0.7-0.4-1-0.7c-0.4-0.3-0.8-0.7-1.1-1.1c-0.1-0.1-0.1-0.2-0.2-0.4l-0.1-0.3l0.2-0.3c0.1-0.1,0.2-0.3,0.2-0.4
							l0.9-1.4l0.5,1.7c0.1,0.2,0.3,0.6,0.6,0.8c0.3,0.2,0.6,0.4,0.9,0.6c1.1,0.7,2.1,1.4,2.6,2.4c-0.1-0.2-0.1-0.4-0.2-0.7
							c-0.7-2.8-1.8-4-2-4.2c-0.1-0.1-0.2-0.2-0.2-0.2l-1.7-1l1.8-0.5c0.1,0,0.2-0.1,0.3-0.1h0.2l0.2,0.1c0.2,0.1,0.4,0.2,0.6,0.4
							c1,0.9,1.9,2.6,2.5,4.9c0-0.2,0.1-0.5,0.1-0.7l0.1-0.3c0.1-0.5,0.2-1.1,0.1-1.6c-0.1-0.3-0.2-0.5-0.4-0.7l1-1.2
							c0.3,0.2,0.5,0.4,0.8,0.6h0.1v0.1c0.2,0.2,0.3,0.5,0.4,0.7v0.1l0,0c0.2,0.9,0,1.7-0.1,2.3h-0.8l0.8,0.2c0,0,0,0.2-0.1,0.3h1.6
							c0,0.1,0,0.4,0,0.4v0.1c-0.1,0.4-0.2,0.8-0.5,1.1c-0.3,0.4-0.6,0.7-1,1l1.7-0.5l-1.2,1.8c-0.1,0.1-0.1,0.2-0.2,0.3l-0.1,0.2
							l-0.2,0.1c-0.1,0-0.3,0.1-0.4,0.1h-0.1c-0.2,0-0.5-0.1-0.7-0.3l-0.1-0.1l-0.1-0.1c0,0.5,0,0.9-0.1,1.2c0,0.2-0.1,0.5-0.3,0.6
							l-0.1,0.2l-0.2,0.1c-0.1,0-0.2,0.1-0.3,0.1l-2.3,0.8L218.7,21.5z"/>
						<path class="st2" d="M218.7,21.5c0,0,0,0,0-0.2c-0.1,0.2-0.2,0.3-0.3,0.5c-0.2,0.2-0.6,0.7-1.6,0.9c-0.2,0-0.4,0.1-0.7,0.1
							h-0.2h-0.1c-0.1,0-0.2-0.1-0.4-0.1l0.3-1.5c0.1,0,0.2,0,0.3,0c0.4-0.1,0.8-0.3,0.9-0.4c-0.3,0-0.6,0-0.9,0c-0.1,0-0.2,0-0.3,0
							c-0.6,0-1.2-0.1-1.7-0.2l-0.2-0.1c-0.2-0.1-0.4-0.1-0.6-0.2c-0.5-0.2-0.8-0.5-1-0.8l-0.1-0.1v-0.1c0-0.1-0.1-0.2-0.1-0.3
							l-0.8-2.6l2.1,1.8c0.1,0.1,0.2,0.1,0.3,0.2l0.1,0.1c0.6,0.3,1.4,0.5,2.4,0.5c0.2,0,0.3,0,0.5,0c-0.4-0.6-1.1-1.1-2-1.7
							c-0.3-0.2-0.7-0.4-1-0.7c-0.4-0.3-0.8-0.7-1.1-1.1c-0.1-0.1-0.1-0.2-0.2-0.4l-0.1-0.3l0.2-0.3c0.1-0.1,0.2-0.3,0.2-0.4
							l0.9-1.4l0.5,1.7c0.1,0.2,0.3,0.6,0.6,0.8c0.3,0.2,0.6,0.4,0.9,0.6c1.1,0.7,2.1,1.4,2.6,2.4c-0.1-0.2-0.1-0.4-0.2-0.7
							c-0.7-2.8-1.8-4-2-4.2c-0.1-0.1-0.2-0.2-0.2-0.2l-1.7-1l1.8-0.5c0.1,0,0.2-0.1,0.3-0.1h0.2l0.2,0.1c0.2,0.1,0.4,0.2,0.6,0.4
							c1,0.9,1.9,2.6,2.5,4.9c0-0.2,0.1-0.5,0.1-0.7l0.1-0.3c0.1-0.5,0.2-1.1,0.1-1.6c-0.1-0.3-0.2-0.5-0.4-0.7l1-1.2
							c0.3,0.2,0.5,0.4,0.8,0.6h0.1v0.1c0.2,0.2,0.3,0.5,0.4,0.7v0.1l0,0c0.2,0.9,0,1.7-0.1,2.3h-0.8l0.8,0.2c0,0,0,0.2-0.1,0.3h1.6
							c0,0.1,0,0.4,0,0.4v0.1c-0.1,0.4-0.2,0.8-0.5,1.1c-0.3,0.4-0.6,0.7-1,1l1.7-0.5l-1.2,1.8c-0.1,0.1-0.1,0.2-0.2,0.3l-0.1,0.2
							l-0.2,0.1c-0.1,0-0.3,0.1-0.4,0.1h-0.1c-0.2,0-0.5-0.1-0.7-0.3l-0.1-0.1l-0.1-0.1c0,0.5,0,0.9-0.1,1.2c0,0.2-0.1,0.5-0.3,0.6
							l-0.1,0.2l-0.2,0.1c-0.1,0-0.2,0.1-0.3,0.1l-2.3,0.8L218.7,21.5z"/>
					</g>
					<g>
						<g>
							<g>
								<path class="st0" d="M217.7,23.1c-3.3,0-6.1-2.7-6.1-6.1s2.7-6.1,6.1-6.1s6.1,2.7,6.1,6.1S221.1,23.1,217.7,23.1z
									 M217.7,12.9c-2.3,0-4.2,1.9-4.2,4.2s1.9,4.2,4.2,4.2s4.2-1.9,4.2-4.2C221.9,14.8,220.1,12.9,217.7,12.9z"/>
								<path class="st2" d="M217.7,23.1c-3.3,0-6.1-2.7-6.1-6.1s2.7-6.1,6.1-6.1s6.1,2.7,6.1,6.1S221.1,23.1,217.7,23.1z
									 M217.7,12.9c-2.3,0-4.2,1.9-4.2,4.2s1.9,4.2,4.2,4.2s4.2-1.9,4.2-4.2C221.9,14.8,220.1,12.9,217.7,12.9z"/>
							</g>
						</g>
					</g>
				</g>
				<g>
					<path class="st0" d="M226.6,29.1"/>
					<path class="st3" d="M226.6,29.1"/>
				</g>
				<g>
					<path class="st0" d="M220.8,47.9c-1.6-1-3.2-1.2-4.7-1.5c-2-0.3-4-0.6-5.3-2.7c-0.1,0-0.2-0.1-0.3-0.1
						c-0.2-0.1-0.4-0.2-0.6-0.2l0.8,1.8l-1.7-0.6c-8.4-3.1-10.5-11.8-10.6-12.1l-0.2-0.9l0.9-0.1c0.5,0,1-0.5,1.7-1
						c1-0.8,2.2-1.7,3.9-1.7c0.7,0,1.5,0.2,2.3,0.5c1.9-2.9,5.2-4.3,7.9-4.3c1.5,0,2.7,0.4,3.6,1.1c0.3-0.1,0.7-0.2,1-0.2
						c1.4,0,3,0.8,4.3,2.2c1.2,1.3,2,2.8,2.1,4.3c1.6,0.6,2.2,2.3,2.3,3.3c0,0,0,0,0.1,0c0.5,0,1.1,0.4,1.8,1.2l0.3,0.4l-0.2,0.5
						c-1,2.1-2.5,2.5-3.5,2.8c-0.8,0.2-0.9,0.3-1,0.6c-0.7,3.2-2,4.4-2.9,5.4c-0.4,0.4-0.8,0.7-1,1.2l-0.4,0.8L220.8,47.9z"/>
					<path class="st4" d="M220.8,47.9c-1.6-1-3.2-1.2-4.7-1.5c-2-0.3-4-0.6-5.3-2.7c-0.1,0-0.2-0.1-0.3-0.1
						c-0.2-0.1-0.4-0.2-0.6-0.2l0.8,1.8l-1.7-0.6c-8.4-3.1-10.5-11.8-10.6-12.1l-0.2-0.9l0.9-0.1c0.5,0,1-0.5,1.7-1
						c1-0.8,2.2-1.7,3.9-1.7c0.7,0,1.5,0.2,2.3,0.5c1.9-2.9,5.2-4.3,7.9-4.3c1.5,0,2.7,0.4,3.6,1.1c0.3-0.1,0.7-0.2,1-0.2
						c1.4,0,3,0.8,4.3,2.2c1.2,1.3,2,2.8,2.1,4.3c1.6,0.6,2.2,2.3,2.3,3.3c0,0,0,0,0.1,0c0.5,0,1.1,0.4,1.8,1.2l0.3,0.4l-0.2,0.5
						c-1,2.1-2.5,2.5-3.5,2.8c-0.8,0.2-0.9,0.3-1,0.6c-0.7,3.2-2,4.4-2.9,5.4c-0.4,0.4-0.8,0.7-1,1.2l-0.4,0.8L220.8,47.9z"/>
				</g>
				<g>
					<path class="st0" d="M218.7,21.4c3.5-1.5,3.6-4.3,3.5-5.3c-2.8-1.1-4.7-2.7-5.5-4.9c-1.3-3.3,0.2-6.5,0.3-6.6l1.3-2.6l0.2,2.9
						c0.5,7,7.7,7.9,7.8,7.9h1.6l-1.1,1.3c-0.4,0.5-0.7,2.2-0.8,3.3c-0.7,4.4-4.9,5.6-7.1,5.6L218.7,21.4z"/>
					<path class="st5" d="M218.7,21.4c3.5-1.5,3.6-4.3,3.5-5.3c-2.8-1.1-4.7-2.7-5.5-4.9c-1.3-3.3,0.2-6.5,0.3-6.6l1.3-2.6l0.2,2.9
						c0.5,7,7.7,7.9,7.8,7.9h1.6l-1.1,1.3c-0.4,0.5-0.7,2.2-0.8,3.3c-0.7,4.4-4.9,5.6-7.1,5.6L218.7,21.4z"/>
				</g>
				<g>
					<path class="st0" d="M208,38.2l-1.3-1c0.8-1,0.8-1.9,0.7-2.4s-0.3-0.9-0.5-1c-0.7-0.6-1.3-0.4-2.5,0.1c-1,0.4-2.1,0.9-3.6,0.7
						L201,33c1.1,0.1,1.9-0.3,2.8-0.6c1.2-0.5,2.6-1.1,4.1,0.1c0.5,0.4,1,1.2,1.1,2.1C209.3,35.8,208.9,37.1,208,38.2z"/>
					<path class="st0" d="M208,38.2l-1.3-0.9h-0.1l0.1-0.1c0.5-0.7,0.8-1.5,0.6-2.3c-0.1-0.4-0.2-0.8-0.5-1c-0.3-0.3-0.6-0.3-1-0.3
						c-0.7,0.2-1.5,0.7-2.3,0.9c-0.8,0.3-1.7,0.4-2.6,0.3h-0.3v-0.3l0.2-1.6v-0.3h0.3c0.5,0.1,1.1,0,1.6-0.2s1.1-0.4,1.7-0.7
						c0.6-0.2,1.2-0.4,1.9-0.3s1.3,0.4,1.8,0.8l0,0c0.5,0.4,0.8,0.9,0.9,1.4c0.2,0.5,0.3,1.1,0.2,1.6
						C209.2,36.4,208.7,37.4,208,38.2z M208,38.2c0.6-0.9,1-1.9,0.9-2.9c0-0.5-0.1-1-0.3-1.5s-0.5-0.9-0.8-1.1l0,0l0,0
						c-0.4-0.4-1-0.6-1.5-0.6s-1.1,0.1-1.6,0.3c-0.5,0.2-1.1,0.5-1.7,0.7c-0.6,0.2-1.3,0.3-1.9,0.2l0.4-0.3l-0.2,1.6l-0.3-0.4
						c0.8,0.1,1.6,0,2.4-0.3c0.8-0.2,1.5-0.7,2.4-0.9c0.5-0.1,1,0.1,1.4,0.4c0.4,0.4,0.5,0.8,0.6,1.3c0.1,0.9-0.3,1.8-0.9,2.4V37
						L208,38.2z"/>
				</g>
				<g>
					<path class="st0" d="M208.8,36.8l-1.6-0.1c0.1-0.6,0-1.3-0.1-1.6c0,0-0.1,0-0.1,0.1c-0.6,0.8-1.8,1.8-3.4,1.3l0.5-1.5
						c1,0.3,1.7-0.7,1.8-0.8l0.2-0.2c0.9-0.7,1.6-0.6,1.9-0.3C208.9,34.3,208.9,36.1,208.8,36.8z"/>
					<path class="st0" d="M208.8,36.8h-1.6h-0.1v-0.1c0-0.3,0-0.5,0-0.8c0-0.2-0.1-0.5-0.2-0.7l0.3,0.1l-0.1,0.1l0.1-0.1
						c-0.4,0.6-0.9,1.1-1.6,1.3c-0.7,0.3-1.4,0.3-2.1,0.1l-0.3-0.1l0.1-0.3c0.1-0.5,0.3-1,0.4-1.5l0.1-0.3l0.3,0.1
						c0.2,0.1,0.5,0.1,0.7-0.1c0.2-0.1,0.5-0.3,0.7-0.6l0,0l0,0l0.2-0.2l0,0l0,0c0.4-0.3,0.9-0.5,1.5-0.5s1.1,0.4,1.3,0.8
						c0.3,0.4,0.4,0.9,0.4,1.4C208.9,35.9,208.9,36.4,208.8,36.8z M208.8,36.8c0-0.9-0.1-1.9-0.6-2.6c-0.2-0.3-0.6-0.5-1-0.5
						s-0.8,0.2-1.1,0.5l0,0l-0.2,0.2l0,0c-0.2,0.3-0.5,0.6-0.9,0.8s-0.8,0.3-1.2,0.1l0.4-0.2c-0.1,0.5-0.3,1-0.5,1.5l-0.2-0.4
						c0.6,0.2,1.2,0.2,1.7,0s1.1-0.6,1.4-1.1l0,0l0,0l0.2-0.1L207,35l0.1,0.2c0.1,0.3,0.1,0.6,0.1,0.9c0,0.3,0,0.5-0.1,0.8l-0.1-0.1
						L208.8,36.8z"/>
				</g>
				<g>
					<path class="st0" d="M219.5,36.6c-0.7,0-2.5-0.2-3.7-1.9c-0.8-1.1-2.5-2.7-3.4-2.6c-0.1,0-0.5,0.1-0.9,0.9l-1.4-0.7
						c0.6-1.3,1.5-1.7,2.2-1.8c2.2-0.2,4.6,2.9,4.9,3.2c1,1.4,2.5,1.3,2.6,1.3l0.2,1.6C219.8,36.6,219.7,36.6,219.5,36.6z"/>
					<path class="st0" d="M219.5,36.6c-0.8,0-1.7-0.2-2.4-0.7c-0.7-0.4-1.3-1.1-1.8-1.7c-0.6-0.6-1.2-1.2-1.9-1.6
						c-0.3-0.2-0.7-0.4-1-0.3c-0.2,0-0.5,0.4-0.6,0.7l-0.1,0.3l-0.3-0.1l-1.4-0.6l-0.3-0.1l0.1-0.3c0.2-0.5,0.5-1,1-1.3
						c0.4-0.4,1-0.6,1.6-0.6c1.2,0,2.1,0.6,2.9,1.2c0.8,0.7,1.4,1.4,2,2.3c0.5,0.8,1.5,1.4,2.5,1.3l0,0l0,0l0.2,1.6l0,0L219.5,36.6z
						 M219.5,36.6h0.3l0,0l-0.2-1.6l0,0c-1,0.1-2-0.4-2.7-1.2c-0.6-0.8-1.3-1.5-2.1-2s-1.7-1-2.6-1c-0.9,0-1.6,0.7-1.9,1.6l-0.2-0.5
						l1.4,0.7l-0.4,0.2c0.2-0.4,0.5-0.9,1.1-1c0.6,0,1,0.2,1.3,0.5c0.7,0.5,1.3,1.1,1.8,1.8c0.3,0.3,0.5,0.7,0.8,1s0.6,0.6,0.9,0.8
						C217.9,36.4,218.7,36.6,219.5,36.6z"/>
				</g>
				<g>
					<g>
						<path class="st0" d="M214.9,37.2c-0.5,0-1-0.1-1.4-0.2c-1.2-0.4-1.6-1.6-1.2-3.5l0.2-0.8l0.8,0.2c0.4,0.1,0.8,0.3,1.2,0.5
							l0.2-0.2l0.6,0.6c0.7,0.8,1.8,1.3,1.8,1.3l0.8,0.4l-0.4,0.7C216.9,36.9,215.8,37.2,214.9,37.2L214.9,37.2z"/>
						<path class="st2" d="M214.9,37.2c-0.5,0-1-0.1-1.4-0.2c-1.2-0.4-1.6-1.6-1.2-3.5l0.2-0.8l0.8,0.2c0.4,0.1,0.8,0.3,1.2,0.5
							l0.2-0.2l0.6,0.6c0.7,0.8,1.8,1.3,1.8,1.3l0.8,0.4l-0.4,0.7C216.9,36.9,215.8,37.2,214.9,37.2L214.9,37.2z"/>
					</g>
					<g>
						<path class="st0" d="M217.4,36.8c-0.5,0-1.9-0.1-2.9-1.4c0,0-1.2-1.6-2.5-0.8l-0.8-1.4c2-1.2,3.8,0.3,4.6,1.2
							c0.6,0.8,1.7,0.7,1.7,0.7l0.1,1.6C217.6,36.8,217.5,36.8,217.4,36.8z"/>
						<path class="st0" d="M217.4,36.8c-1,0-2.1-0.4-2.8-1.1c-0.3-0.4-0.7-0.7-1.2-0.9c-0.4-0.2-0.9-0.2-1.3,0.1l-0.2,0.1l-0.1-0.2
							l-0.8-1.3l-0.1-0.2l0.2-0.1c0.5-0.3,1.2-0.5,1.8-0.5s1.2,0.3,1.7,0.6s0.9,0.8,1.3,1.3c0.3,0.4,0.9,0.7,1.5,0.7l0,0l0,0
							L217.4,36.8L217.4,36.8L217.4,36.8L217.4,36.8z M217.4,36.8h0.2l0,0l-0.2-1.6l0,0c-0.6,0-1.2-0.1-1.7-0.6
							c-0.4-0.5-0.8-0.8-1.3-1.1s-1-0.5-1.6-0.5c-0.5,0-1.1,0.1-1.5,0.4l0.1-0.4l0.8,1.4l-0.3-0.1c0.5-0.3,1.2-0.2,1.7,0
							c0.5,0.3,0.8,0.7,1.1,1.1C215.3,36.3,216.4,36.8,217.4,36.8z"/>
					</g>
				</g>
				<g>
					<path class="st0" d="M221.9,39.8c-0.2-0.1-2.2-0.9-2.7-2.7c-0.2-0.6-0.2-1.6,0.7-2.8l1.3,1c-0.4,0.5-0.5,1-0.4,1.4
						c0.2,0.8,1.4,1.5,1.8,1.6L221.9,39.8z"/>
					<path class="st0" d="M221.9,39.8c-0.6-0.2-1.1-0.5-1.6-0.8c-0.5-0.4-0.9-0.8-1.2-1.4c-0.3-0.5-0.4-1.2-0.3-1.8
						c0.1-0.6,0.4-1.2,0.8-1.7l0.2-0.2l0.2,0.2l1.3,1l0.2,0.2l-0.2,0.2c-0.2,0.3-0.4,0.5-0.4,0.8c-0.1,0.3,0,0.5,0.2,0.8
						c0.3,0.5,0.9,0.9,1.5,1.2l0.1,0.1v0.1L221.9,39.8z M221.9,39.8l0.5-1.5l0.1,0.1c-0.3-0.1-0.6-0.3-0.9-0.5
						c-0.3-0.2-0.6-0.4-0.8-0.7s-0.4-0.7-0.3-1.1c0.1-0.4,0.3-0.7,0.5-1v0.4l-1.3-0.9l0.4-0.1c-0.3,0.4-0.6,0.9-0.7,1.4
						c-0.1,0.5-0.1,1.1,0.1,1.6C219.9,38.5,220.9,39.3,221.9,39.8z"/>
				</g>
				<g>
					<path class="st0" d="M222.1,34c-0.6-0.6-1.5-0.6-2.2-0.7c-0.4,0-0.8,0-1.2-0.1c-2.3-0.7-4-2.5-4.7-3.2
						c-0.5-0.5-1.3-0.8-2.2-0.8c-1.1,0-2.7,1.1-3.7,2l-0.1,0.1l-0.1,0.1l-1.1,0.6l-0.2-2.8l0.1-0.2c1.9-3.1,4-4.7,6.4-4.7
						c1.6,0,3.3,0.5,5.2,1.4c0.5-0.2,0.9-0.3,1.4-0.3c3.2,0,5.1,3.8,5.2,4l0.4,0.9l-0.7,0.7c-0.1,0.2-0.3,1.1-0.3,1.9v3.3L222.1,34z
						"/>
					<path class="st2" d="M222.1,34c-0.6-0.6-1.5-0.6-2.2-0.7c-0.4,0-0.8,0-1.2-0.1c-2.3-0.7-4-2.5-4.7-3.2
						c-0.5-0.5-1.3-0.8-2.2-0.8c-1.1,0-2.7,1.1-3.7,2l-0.1,0.1l-0.1,0.1l-1.1,0.6l-0.2-2.8l0.1-0.2c1.9-3.1,4-4.7,6.4-4.7
						c1.6,0,3.3,0.5,5.2,1.4c0.5-0.2,0.9-0.3,1.4-0.3c3.2,0,5.1,3.8,5.2,4l0.4,0.9l-0.7,0.7c-0.1,0.2-0.3,1.1-0.3,1.9v3.3L222.1,34z
						"/>
				</g>
				<g>
					<path class="st0" d="M222.6,33.5c-0.8-0.8-1.8-0.8-2.7-0.9c-0.4,0-0.7,0-1-0.1c-2.1-0.6-3.8-2.3-4.4-3
						c-0.7-0.6-1.4-0.9-2.3-0.9c-1.8,0-3.5,1.2-3.5,1.2l-2.7,1.9l1.8-2.9c1.5-2.4,3.6-3.7,6-3.7c1.5,0,3,0.4,4.6,1.3
						c0.5-0.2,1-0.3,1.5-0.3c2.8,0,4.6,3.5,4.6,3.6l0.2,0.4l-0.3,0.4c-0.3,0.4-0.5,1.6-0.5,2.4v1.7L222.6,33.5z"/>
					<path class="st0" d="M213.6,25.3c1.4,0,3,0.4,4.6,1.3h0.1h0.1c0.4-0.2,0.9-0.3,1.4-0.3c2.7,0,4.5,3.4,4.5,3.6l0.2,0.4l-0.3,0.3
						c-0.4,0.4-0.5,1.7-0.5,2.5v1.4l-1-1c-0.8-0.8-1.9-0.9-2.7-0.9c-0.4,0-0.7,0-1-0.1c-2.1-0.6-3.8-2.3-4.4-3
						c-0.7-0.6-1.5-0.9-2.4-0.9c-1.8,0-3.6,1.2-3.6,1.2l-2.3,1.6l1.5-2.4C209.2,26.6,211.2,25.3,213.6,25.3 M213.6,25.1
						c-2.5,0-4.6,1.3-6.1,3.7l-2,3.3l3.2-2.2c0,0,1.7-1.2,3.5-1.2c0.9,0,1.6,0.3,2.3,0.9c0.6,0.7,2.3,2.4,4.5,3
						c0.3,0.1,0.6,0.1,1,0.1c0.8,0,1.8,0.1,2.6,0.8l1.4,1.4V33c0-0.9,0.2-2,0.5-2.3l0.4-0.4l-0.3-0.5c-0.1-0.1-1.9-3.7-4.7-3.7
						c-0.5,0-1,0.1-1.4,0.3C217.5,26,215.7,25.1,213.6,25.1L213.6,25.1z"/>
				</g>
				<g>
					<path class="st0" d="M224.6,44.1c-0.5,0-0.9-0.1-1.2-0.2c-0.1,0-0.2-0.1-0.3-0.1c-0.8-0.3-2.3-0.8-2.7-2
						c-0.3-0.7-0.1-1.5,0.4-2.4l0.3-0.5l0.5,0.1c0,0,0.2,0,0.5,0c1.2,0,3.5-0.5,4.7-3.7c0-0.1,1.1-4.1-4.5-7.2
						c-1.3-0.7-2.7-1-3.9-1.2c-0.9-0.2-1.8-0.3-2.6-0.7c-5.4-0.5-6.6-4.2-7.3-7.7l-0.2-0.8l0.8-0.2c0.5-0.1,0.6-0.4,0.8-0.7
						c0-0.1,0.1-0.2,0.1-0.2c0-0.1,0.1-0.2,0.2-0.3c0.7-1.1,1.5-2.3,2.6-2.5l1.4-0.2l-0.6,1.3c-0.1,0.1-1.4,3.5,1.6,5.7
						c1.2,0.9,3.1,1.2,5.3,1.6c0.8,0.1,1.7,0.3,2.6,0.5c3.3,0.9,9.9,2.7,11.4,9.5c0.4,2.2,0.2,8.4-5.6,10.9l-0.2,0.1h-0.1l0,0
						C227,43.8,225.6,44.1,224.6,44.1z"/>
					<path class="st6" d="M224.6,44.1c-0.5,0-0.9-0.1-1.2-0.2c-0.1,0-0.2-0.1-0.3-0.1c-0.8-0.3-2.3-0.8-2.7-2
						c-0.3-0.7-0.1-1.5,0.4-2.4l0.3-0.5l0.5,0.1c0,0,0.2,0,0.5,0c1.2,0,3.5-0.5,4.7-3.7c0-0.1,1.1-4.1-4.5-7.2
						c-1.3-0.7-2.7-1-3.9-1.2c-0.9-0.2-1.8-0.3-2.6-0.7c-5.4-0.5-6.6-4.2-7.3-7.7l-0.2-0.8l0.8-0.2c0.5-0.1,0.6-0.4,0.8-0.7
						c0-0.1,0.1-0.2,0.1-0.2c0-0.1,0.1-0.2,0.2-0.3c0.7-1.1,1.5-2.3,2.6-2.5l1.4-0.2l-0.6,1.3c-0.1,0.1-1.4,3.5,1.6,5.7
						c1.2,0.9,3.1,1.2,5.3,1.6c0.8,0.1,1.7,0.3,2.6,0.5c3.3,0.9,9.9,2.7,11.4,9.5c0.4,2.2,0.2,8.4-5.6,10.9l-0.2,0.1h-0.1l0,0
						C227,43.8,225.6,44.1,224.6,44.1z"/>
				</g>
				<g>
					<path class="st0" d="M222.3,37.1l-1.5-0.6c0.6-1.6,3-2.8,5.5-2.2l-0.4,1.5C224.1,35.4,222.6,36.4,222.3,37.1z"/>
					<path class="st0" d="M222.3,37.1l-1.5-0.5h-0.1v-0.1c0.4-1.1,1.3-1.8,2.4-2.2c1-0.4,2.2-0.4,3.3-0.2l0.2,0.1l-0.1,0.2l-0.4,1.5
						l-0.1,0.2h-0.2c-0.6-0.2-1.3-0.2-2,0c-0.3,0.1-0.6,0.2-0.9,0.4C222.8,36.6,222.5,36.8,222.3,37.1z M222.3,37.1
						c0.1-0.3,0.4-0.6,0.6-0.8c0.3-0.2,0.6-0.4,0.9-0.5c0.7-0.2,1.4-0.3,2.1-0.1l-0.2,0.1l0.4-1.5l0.2,0.3c-1-0.2-2.1-0.2-3.1,0.1
						s-1.9,0.9-2.3,1.9l-0.1-0.1L222.3,37.1z"/>
				</g>
				<g>
					<path class="st0" d="M223.8,37.6l-1.4-0.8c0.4-0.7,1.9-2,4-1.4l-0.5,1.5C224.5,36.6,223.8,37.6,223.8,37.6z"/>
					<path class="st0" d="M223.8,37.6c-0.4-0.2-0.9-0.4-1.4-0.7l-0.1-0.1l0,0c0.4-0.7,1-1.2,1.8-1.5c0.4-0.1,0.8-0.2,1.2-0.2
						s0.8,0.1,1.2,0.2l0.2,0.1l-0.1,0.2c-0.2,0.5-0.3,1-0.5,1.5l-0.1,0.2l-0.1-0.1C225.1,36.9,224.3,37.1,223.8,37.6z M223.8,37.6
						c0.2-0.3,0.5-0.6,0.9-0.8s0.8-0.1,1.2,0l-0.2,0.1c0.1-0.5,0.3-1,0.4-1.5l0.1,0.3c-0.7-0.2-1.4-0.2-2.1,0
						c-0.7,0.2-1.3,0.6-1.7,1.2v-0.2C222.9,37,223.3,37.3,223.8,37.6z"/>
				</g>
				<g>
					<g>
						<path class="st0" d="M222.4,46.6c-3.2,0-6.2-1.9-6.8-3.2c-0.2-0.5-0.1-0.9,0-1.1c0.2-0.6,1.2-2.9,4.1-3.2h0.1h0.1
							c1.3,0.3,1.9,0.8,2.4,1.2s0.8,0.7,1.9,0.7c0.2,0,0.3,0,0.5,0c0,0,4.9-0.9,10.7-8.5l2.1-2.8l-0.7,3.4c0,0.1-2.9,13.1-13.5,13.5
							C223,46.6,222.7,46.6,222.4,46.6z"/>
						<path class="st7" d="M222.4,46.6c-3.2,0-6.2-1.9-6.8-3.2c-0.2-0.5-0.1-0.9,0-1.1c0.2-0.6,1.2-2.9,4.1-3.2h0.1h0.1
							c1.3,0.3,1.9,0.8,2.4,1.2s0.8,0.7,1.9,0.7c0.2,0,0.3,0,0.5,0c0,0,4.9-0.9,10.7-8.5l2.1-2.8l-0.7,3.4c0,0.1-2.9,13.1-13.5,13.5
							C223,46.6,222.7,46.6,222.4,46.6z"/>
					</g>
				</g>
				<g>
					<path class="st0" d="M219.1,46.2l-1.4-0.7c-2-1-3.3-2.4-3.8-4.1c-0.7-2.5,0.7-4.6,0.7-4.7l1.3,0.8l-0.7-0.4l0.7,0.4
						c0,0-1,1.7-0.5,3.5c0.3,1,1,1.9,2.1,2.6c0.2-0.7,0.7-1.4,1.3-2s1.3-1,2.2-1.2c-0.7-0.6-1.7-1.2-2.4-1.4l0.3-1.6
						c1.8,0.3,4.4,2.5,4.6,3.5l-0.3,0.9l-0.3,0.2l-0.3-0.1c-0.9-0.1-1.6,0-2.2,0.5c-1,0.7-1.3,2-1.4,2.3L219.1,46.2z"/>
					<path class="st0" d="M219.1,46.2c-0.9-0.4-1.9-0.8-2.7-1.4c-0.9-0.6-1.6-1.3-2.2-2.2c-0.5-0.9-0.7-2-0.7-3.1
						c0.1-1.1,0.4-2.1,0.9-3l0.1-0.3l0.3,0.2l1.3,0.8l-0.3,0.5l-0.7-0.4l0.3-0.5l0.7,0.4l0.3,0.2l-0.2,0.3c-0.3,0.4-0.5,1-0.5,1.5
						c-0.1,0.5-0.1,1.1,0,1.6c0.3,1,1.1,1.9,2,2.5l-0.5,0.2c0.3-0.8,0.8-1.6,1.4-2.2c0.6-0.6,1.4-1.1,2.3-1.2l-0.1,0.6
						c-0.3-0.3-0.7-0.6-1.1-0.8c-0.4-0.2-0.8-0.4-1.2-0.5l-0.3-0.1l0.1-0.3l0.3-1.6l0.1-0.3l0.3,0.1c1.1,0.2,1.9,0.8,2.7,1.4
						c0.4,0.3,0.8,0.6,1.1,1s0.7,0.7,0.9,1.3V41v0.1l-0.4,0.9v0.1l0,0l-0.3,0.2h-0.1h-0.1c-0.5-0.1-0.9-0.2-1.3-0.1
						c-0.4,0-0.8,0.2-1.2,0.5c-0.7,0.5-1.2,1.4-1.4,2.2l0,0L219.1,46.2z M219.1,46.2l-0.3-1.5l0,0l0,0c0.2-0.9,0.6-1.8,1.3-2.4
						c0.4-0.3,0.8-0.5,1.3-0.6s1,0,1.4,0.1h-0.1l0.3-0.2l-0.1,0.1l0.3-0.9v0.1c-0.1-0.4-0.5-0.7-0.8-1.1c-0.3-0.3-0.7-0.6-1.1-0.9
						c-0.8-0.5-1.6-1-2.5-1.2l0.4-0.2l-0.3,1.6l-0.3-0.4c0.5,0.1,1,0.3,1.4,0.6s0.8,0.5,1.2,0.8l0.5,0.4l-0.7,0.1
						c-0.7,0.2-1.4,0.5-1.9,1.1c-0.5,0.5-0.9,1.2-1.2,1.9l-0.2,0.4l-0.4-0.2c-1-0.7-2-1.7-2.2-2.9c-0.2-0.6-0.1-1.3,0-1.9
						c0.1-0.6,0.3-1.2,0.7-1.8l0.1,0.4l-0.7-0.4l0.3-0.5l0.7,0.4l-0.3,0.5l-1.3-0.9l0.4-0.1c-1,1.6-1.3,3.8-0.4,5.6
						c0.4,0.9,1.1,1.6,1.9,2.2c0.4,0.3,0.8,0.6,1.3,0.8L219.1,46.2z"/>
				</g>
				<g>
					<path class="st0" d="M220.3,50.1"/>
					<path class="st8" d="M220.3,50.1"/>
				</g>
				<g>
					<path class="st0" d="M216.2,57.4c0.1-1.2-0.3-2.3-1.2-3.1l-0.1-0.1l-0.1,0.1c-0.3,0.5-0.7,0.8-0.9,0.9l-1.6,1.1l-0.2-1.9
						c-0.2-1.8-0.9-2.2-1.9-2.8c-0.9-0.5-2-1.2-2.7-2.9v-0.2c-0.3-1.5-0.1-2.7,0.5-3.6c0.6-0.8,1.5-1.2,2.6-1.4h0.1
						c0.3,0,0.5-0.1,0.8-0.1c1.8,0,3.3,1,4.7,2c1.3,0.9,2.6,1.8,4.1,2c0.5,0,1,0.1,1.4,0.1c2.7,0,3.7-0.9,4.4-1.5l3.8-3.2l-0.7,3.2
						c-0.8,2.7-3.2,4.5-4.2,5.1l-0.6,1.1c-1.2,2.2-2.9,2.6-3.9,2.6c-0.1,0-0.4,0-0.4,0v0.1c-0.1,1.7-1.5,2.8-2.1,3.3l-2.2,1.8
						L216.2,57.4z"/>
					<g>
						<path class="st0" d="M229.9,43.3l-0.6,2.8c-0.7,2.7-3.1,4.4-4.1,5.1h-0.1v0.1l-0.6,1.1c-1.2,2.2-2.9,2.5-3.7,2.5
							c-0.1,0-0.2,0-0.3,0h-0.3v0.3c-0.1,1.7-1.4,2.7-2.1,3.2l-2,1.6l0.2-2.4c0.1-1.2-0.3-2.3-1.2-3.2l-0.2-0.2l-0.2,0.3
							c-0.3,0.5-0.7,0.8-0.8,0.8l-1.4,1l-0.2-1.7c-0.2-1.8-0.9-2.3-1.9-2.9c-0.9-0.6-2-1.2-2.6-2.8l0,0v-0.1
							c-0.3-1.5-0.1-2.6,0.5-3.5c0.6-0.7,1.4-1.2,2.6-1.3h0.1c0.3,0,0.5-0.1,0.8-0.1c1.8,0,3.2,1,4.7,2c1.3,0.9,2.6,1.8,4.2,2
							c0.5,0,1,0.1,1.4,0.1c2.7,0,3.8-0.9,4.5-1.5L229.9,43.3 M230.4,42.5l-4.1,3.5c-0.7,0.6-1.7,1.5-4.3,1.5c-0.5,0-1,0-1.4-0.1
							c-1.5-0.2-2.8-1.1-4-1.9c-1.5-1-3-2.1-4.8-2.1c-0.3,0-0.5,0-0.8,0.1h-0.1c-1.2,0.1-2.1,0.6-2.7,1.4c-0.7,0.9-0.9,2.1-0.6,3.7
							v0.1v0.1c0.6,1.7,1.8,2.4,2.7,3c1,0.6,1.6,1,1.8,2.7l0.2,2.2l1.8-1.3c0.1-0.1,0.5-0.4,0.9-0.9c0.7,0.7,1.2,1.6,1.1,3l-0.3,3
							l2.5-2c0.6-0.5,2-1.6,2.2-3.4c0.1,0,0.2,0,0.3,0c1,0,2.7-0.3,4-2.6l0.6-1.1c1.5-0.9,3.6-2.8,4.3-5.2L230.4,42.5L230.4,42.5z"
							/>
					</g>
				</g>
				<g>
					<path class="st0" d="M216.7,57.5c0.2-2-0.9-3.2-1.8-3.9l-0.1-0.1l-0.1,0.2c-0.3,0.7-0.9,1.1-1,1.2l-0.9,0.6l-0.1-1.1
						c-0.2-2-1.1-2.5-2.1-3.2c-0.9-0.5-1.9-1.1-2.5-2.6v-0.1c-0.3-1.3-0.1-2.4,0.5-3.2c0.5-0.7,1.3-1,2.3-1.2h0.2
						c0.2,0,0.5-0.1,0.7-0.1c1.7,0,3.1,1,4.5,1.9c1.3,0.9,2.7,1.9,4.3,2c0.5,0,1,0.1,1.5,0.1c3.1,0,3.9-0.8,4.9-1.8
						c0.3-0.3,0.7-0.7,1.1-1l1.9-1.5l-0.9,2.3c-0.7,1.6-1.5,2.9-2.6,3.8l-0.3,0.3h0.2l-1.3,0.9l-0.7,1.2c-1.1,2-2.6,2.3-3.4,2.3
						c-0.2,0-0.5,0-0.7-0.1h-0.2v0.2c0.1,1.8-1.3,2.9-1.9,3.5l-1.3,1.1L216.7,57.5z"/>
					<g>
						<path class="st0" d="M229.5,44.1l-0.7,1.8c-0.7,1.6-1.5,2.9-2.6,3.7l-0.7,0.5h0.1l-0.9,0.6h-0.1v0.1L224,52
							c-1.1,1.9-2.5,2.2-3.3,2.2c-0.2,0-0.5,0-0.7-0.1l-0.4-0.1v0.4c0.1,1.7-1.2,2.8-1.9,3.4l-1.1,0.9l0.1-1.2c0.2-2-0.9-3.3-1.8-4
							l-0.3-0.2l-0.1,0.3c-0.3,0.6-0.8,1-1,1.1l-0.7,0.5l-0.1-0.9c-0.2-2.1-1.1-2.6-2.2-3.3c-0.9-0.5-1.9-1.1-2.4-2.6l0,0v-0.1
							c-0.3-1.3-0.1-2.3,0.4-3.1c0.5-0.6,1.2-1,2.2-1.1h0.2c0.2,0,0.5-0.1,0.7-0.1c1.6,0,3,1,4.4,1.9c1.3,0.9,2.7,1.9,4.4,2.1
							c0.5,0,1,0.1,1.5,0.1c3.2,0,4-0.9,5-1.9c0.3-0.3,0.6-0.7,1.1-1L229.5,44.1 M230.2,43.3l-2.3,1.8c-0.4,0.3-0.8,0.7-1.1,1
							c-1,1-1.7,1.8-4.8,1.8c-0.5,0-1,0-1.5-0.1c-1.6-0.2-3-1.1-4.3-2c-1.4-1-2.8-2-4.5-2c-0.2,0-0.5,0-0.7,0.1h-0.2
							c-0.5,0-1.6,0.2-2.4,1.2c-0.6,0.8-0.8,1.9-0.5,3.3v0.1v0.1c0.6,1.6,1.6,2.2,2.5,2.7c1,0.6,1.8,1.1,2,3l0.1,1.4l1.1-0.8
							c0.3-0.2,0.8-0.7,1.1-1.2c0.8,0.6,1.9,1.9,1.7,3.8l-0.2,1.9l1.6-1.3c0.7-0.6,2.1-1.7,2-3.6c0.2,0,0.5,0.1,0.8,0.1
							c0.8,0,2.4-0.3,3.6-2.4l0.6-1.2l1.8-1.1h-0.3c1-0.8,1.9-2,2.7-3.8L230.2,43.3L230.2,43.3z"/>
					</g>
				</g>
				<g>
					<g>
						<path class="st0" d="M212.1,48.8c-0.5,0-1.6-0.3-2.4-1.3c-0.6-0.7-1.3-1.8-1.2-3.8l0.1-1.4l1.4,0.4c1,0.3,2.9,1.5,2.9,3.8
							c0,0.1,0.1,0.3,0.2,0.5l0.4,0.7l-0.4,0.6C212.8,48.6,212.5,48.8,212.1,48.8L212.1,48.8z"/>
						<path class="st2" d="M212.1,48.8c-0.5,0-1.6-0.3-2.4-1.3c-0.6-0.7-1.3-1.8-1.2-3.8l0.1-1.4l1.4,0.4c1,0.3,2.9,1.5,2.9,3.8
							c0,0.1,0.1,0.3,0.2,0.5l0.4,0.7l-0.4,0.6C212.8,48.6,212.5,48.8,212.1,48.8L212.1,48.8z"/>
					</g>
					<g>
						<path class="st0" d="M212.1,48.4c-0.4,0-1.4-0.3-2.1-1.1c-0.6-0.6-1.2-1.7-1.1-3.5l0.1-1l1,0.3c0.9,0.3,2.6,1.3,2.7,3.5
							c0,0.2,0.1,0.4,0.3,0.7l0.2,0.4l-0.5,0.7L212.1,48.4z"/>
						<path class="st9" d="M212.1,48.4c-0.4,0-1.4-0.3-2.1-1.1c-0.6-0.6-1.2-1.7-1.1-3.5l0.1-1l1,0.3c0.9,0.3,2.6,1.3,2.7,3.5
							c0,0.2,0.1,0.4,0.3,0.7l0.2,0.4l-0.5,0.7L212.1,48.4z"/>
					</g>
					<g>
						<g>
							<path class="st0" d="M214.5,46.9c-0.2,0-0.3-0.1-0.5-0.1c-0.1,0-0.3-0.1-0.4-0.1c-0.1,0-0.3,0-0.5,0H213
								c-1.2,0-2.3-0.8-3.5-2.2l-1-1.3l1.5-0.5c0.2-0.1,0.6-0.2,1.2-0.2h0.2c1.1,0,2.7,0.5,4.1,2.4c0.3,0.5,0.3,0.9,0.1,1.4
								C215.4,46.6,215,46.9,214.5,46.9L214.5,46.9z"/>
							<path class="st2" d="M214.5,46.9c-0.2,0-0.3-0.1-0.5-0.1c-0.1,0-0.3-0.1-0.4-0.1c-0.1,0-0.3,0-0.5,0H213
								c-1.2,0-2.3-0.8-3.5-2.2l-1-1.3l1.5-0.5c0.2-0.1,0.6-0.2,1.2-0.2h0.2c1.1,0,2.7,0.5,4.1,2.4c0.3,0.5,0.3,0.9,0.1,1.4
								C215.4,46.6,215,46.9,214.5,46.9L214.5,46.9z"/>
						</g>
						<g>
							<path class="st0" d="M214.6,46.5c-0.2,0-0.3,0-0.5-0.1c-0.1,0-0.3-0.1-0.5-0.1s-0.3,0-0.5,0c-1.1,0-2.2-0.7-3.3-2.1l-0.7-0.9
								l1-0.4c0.1,0,0.5-0.2,1.1-0.2c0.9,0,2.5,0.3,4,2.2l0.3,0.4l-0.2,0.5C215.2,46.3,214.9,46.5,214.6,46.5z"/>
							<path class="st10" d="M214.6,46.5c-0.2,0-0.3,0-0.5-0.1c-0.1,0-0.3-0.1-0.5-0.1s-0.3,0-0.5,0c-1.1,0-2.2-0.7-3.3-2.1
								l-0.7-0.9l1-0.4c0.1,0,0.5-0.2,1.1-0.2c0.9,0,2.5,0.3,4,2.2l0.3,0.4l-0.2,0.5C215.2,46.3,214.9,46.5,214.6,46.5z"/>
						</g>
					</g>
					<g>
						<g>
							<path class="st0" d="M207.3,49.1h-0.1c-0.8-0.3-1-1.2-1.1-1.9c-0.1-1,0.1-2.9,2.3-4.4l1.1-0.7l0.5,1.2c0.4,0.9,0.7,3-1.1,4.5
								c-0.2,0.1-0.3,0.3-0.3,0.5l-0.2,0.9L207.3,49.1z"/>
							<path class="st2" d="M207.3,49.1h-0.1c-0.8-0.3-1-1.2-1.1-1.9c-0.1-1,0.1-2.9,2.3-4.4l1.1-0.7l0.5,1.2c0.4,0.9,0.7,3-1.1,4.5
								c-0.2,0.1-0.3,0.3-0.3,0.5l-0.2,0.9L207.3,49.1z"/>
						</g>
						<g>
							<path class="st0" d="M207.6,48.8c-0.6,0-0.8-0.7-0.9-0.9c-0.4-1.4-0.1-3.4,2-4.8l0.8-0.5l0.4,0.9c0.4,0.8,0.6,2.7-1,4
								c-0.2,0.2-0.4,0.5-0.5,0.8l-0.1,0.6L207.6,48.8z"/>
							<path class="st9" d="M207.6,48.8c-0.6,0-0.8-0.7-0.9-0.9c-0.4-1.4-0.1-3.4,2-4.8l0.8-0.5l0.4,0.9c0.4,0.8,0.6,2.7-1,4
								c-0.2,0.2-0.4,0.5-0.5,0.8l-0.1,0.6L207.6,48.8z"/>
						</g>
					</g>
					<g>
						<g>
							<path class="st0" d="M209.7,45.2c-0.1,0-0.2,0-0.3,0c-0.6-0.1-1-0.4-1.4-0.9c-0.3-0.5-0.5-1-0.4-1.6c0.2-1,1-1.8,2.1-1.8
								c0.1,0,0.2,0,0.3,0c1.1,0.2,1.9,1.3,1.7,2.4C211.6,44.5,210.7,45.2,209.7,45.2z"/>
							<path class="st2" d="M209.7,45.2c-0.1,0-0.2,0-0.3,0c-0.6-0.1-1-0.4-1.4-0.9c-0.3-0.5-0.5-1-0.4-1.6c0.2-1,1-1.8,2.1-1.8
								c0.1,0,0.2,0,0.3,0c1.1,0.2,1.9,1.3,1.7,2.4C211.6,44.5,210.7,45.2,209.7,45.2z"/>
						</g>
						<g>
							<path class="st0" d="M209.7,44.9c-0.1,0-0.2,0-0.3,0c-1-0.2-1.7-1.1-1.5-2.1c0.1-0.9,0.9-1.5,1.8-1.5c0.1,0,0.2,0,0.3,0
								c0.5,0.1,0.9,0.3,1.2,0.7s0.4,0.9,0.3,1.4C211.3,44.3,210.6,44.9,209.7,44.9z"/>
							<path class="st11" d="M209.7,44.9c-0.1,0-0.2,0-0.3,0c-1-0.2-1.7-1.1-1.5-2.1c0.1-0.9,0.9-1.5,1.8-1.5c0.1,0,0.2,0,0.3,0
								c0.5,0.1,0.9,0.3,1.2,0.7s0.4,0.9,0.3,1.4C211.3,44.3,210.6,44.9,209.7,44.9z"/>
						</g>
					</g>
				</g>
				<g>
					<path class="st0" d="M222.8,46c-2.4,0-4.2-0.7-4.2-0.8L218,45l0.1-0.6c0.2-0.7,0.5-1.2,0.6-1.3l0.4-0.5l0.6,0.2
						c1.2,0.5,2.4,0.7,3.6,0.7l0,0c5.4,0,8.9-5.1,9.9-6.6l0.2-0.4l0.5-0.1h0.4l0.5,0.8l-0.2,0.5C231,44.5,226.2,46,222.8,46
						L222.8,46z"/>
					<path class="st2" d="M222.8,46c-2.4,0-4.2-0.7-4.2-0.8L218,45l0.1-0.6c0.2-0.7,0.5-1.2,0.6-1.3l0.4-0.5l0.6,0.2
						c1.2,0.5,2.4,0.7,3.6,0.7l0,0c5.4,0,8.9-5.1,9.9-6.6l0.2-0.4l0.5-0.1h0.4l0.5,0.8l-0.2,0.5C231,44.5,226.2,46,222.8,46
						L222.8,46z"/>
				</g>
				<g>
					<path class="st0" d="M224,46.2c-0.5,0-0.7-0.4-0.8-0.5c-0.2-0.4-1.2-2.5-0.2-4.1l0.2-0.3l3.6-0.6l-0.1,1
						c-0.1,0.8,0.1,2,0.5,2.3l0.4,0.2v0.4C227.6,45.9,224.1,46.2,224,46.2L224,46.2z"/>
					<path class="st2" d="M224,46.2c-0.5,0-0.7-0.4-0.8-0.5c-0.2-0.4-1.2-2.5-0.2-4.1l0.2-0.3l3.6-0.6l-0.1,1
						c-0.1,0.8,0.1,2,0.5,2.3l0.4,0.2v0.4C227.6,45.9,224.1,46.2,224,46.2L224,46.2z"/>
				</g>
				<g>
					<path class="st0" d="M230.6,42.8c-0.1,0-2.2-1-2.3-2.9v-0.5l2.7-1.8l0.3,0.9c0.1,0.3,0.5,1,0.9,1.1l1.2,0.3l-2.3,3L230.6,42.8z
						"/>
					<path class="st2" d="M230.6,42.8c-0.1,0-2.2-1-2.3-2.9v-0.5l2.7-1.8l0.3,0.9c0.1,0.3,0.5,1,0.9,1.1l1.2,0.3l-2.3,3L230.6,42.8z
						"/>
				</g>
				<g>
					<path class="st0" d="M216.8,45.8c-0.1,0-0.2,0-0.4-0.1c-0.3-0.1-1-0.2-1.4-0.2h-0.3l-0.2-0.2c-0.9-0.9-1.8-1.5-2.3-1.5H212
						l-0.4-0.3c-1.1-0.8-2.9-1.9-2-6.2l1.6,0.3c0,0.1-0.2,1.4,0.6,2.5c0.1-0.6,0.3-1.2,0.7-1.6l1.6-1.6l-0.3,2.3
						c0,0.1-0.2,2.6,1.8,3.8l0,0c0.7,0.4,2,1.4,2.1,2v0.1v0.7H216.8z"/>
					<path class="st2" d="M216.8,45.8c-0.1,0-0.2,0-0.4-0.1c-0.3-0.1-1-0.2-1.4-0.2h-0.3l-0.2-0.2c-0.9-0.9-1.8-1.5-2.3-1.5H212
						l-0.4-0.3c-1.1-0.8-2.9-1.9-2-6.2l1.6,0.3c0,0.1-0.2,1.4,0.6,2.5c0.1-0.6,0.3-1.2,0.7-1.6l1.6-1.6l-0.3,2.3
						c0,0.1-0.2,2.6,1.8,3.8l0,0c0.7,0.4,2,1.4,2.1,2v0.1v0.7H216.8z"/>
				</g>
				<g>
					<path class="st0" d="M218.2,41.2c0-0.1,0.3-0.6,0.6-1l-2.1-1.8l0.8-1.3c0.1,0,3,1.2,4.3,3l1,1.3h-1.6c0,0-1.2,0-1.6,0.7
						L218.2,41.2z"/>
					<path class="st2" d="M218.2,41.2c0-0.1,0.3-0.6,0.6-1l-2.1-1.8l0.8-1.3c0.1,0,3,1.2,4.3,3l1,1.3h-1.6c0,0-1.2,0-1.6,0.7
						L218.2,41.2z"/>
				</g>
				<g>
					<path class="st0" d="M226,39.5c0,0,4.7-2.6,5.3-6.2c0.3-1.7-0.5-3.5-2.3-5.3l0.9-1.3c0.2,0.1,4.5,2.1,3.9,8.4
						c0,0.6-3.1,4.4-7.2,5.8L226,39.5z"/>
					<path class="st2" d="M226,39.5c0,0,4.7-2.6,5.3-6.2c0.3-1.7-0.5-3.5-2.3-5.3l0.9-1.3c0.2,0.1,4.5,2.1,3.9,8.4
						c0,0.6-3.1,4.4-7.2,5.8L226,39.5z"/>
				</g>
				<g>
					<path class="st0" d="M217.5,25.6c-1.7,0-7.2-0.5-7.8-6.6l0,0l1.6-0.2h-0.1h0.1c0,0.2,0.6,4.3,7.1,5.1v1.6
						C218.4,25.5,218,25.6,217.5,25.6z"/>
					<path class="st2" d="M217.5,25.6c-1.7,0-7.2-0.5-7.8-6.6l0,0l1.6-0.2h-0.1h0.1c0,0.2,0.6,4.3,7.1,5.1v1.6
						C218.4,25.5,218,25.6,217.5,25.6z"/>
				</g>
				<g>
					<path class="st0" d="M224.3,15c-1.1,0-4.6-0.3-5.9-4.1l1.4-0.7c0,0,2.1,2.8,5.4,3.2h0.1l0.7,0.4l-0.1,0.6
						C225.6,15,224.9,15,224.3,15z"/>
					<path class="st2" d="M224.3,15c-1.1,0-4.6-0.3-5.9-4.1l1.4-0.7c0,0,2.1,2.8,5.4,3.2h0.1l0.7,0.4l-0.1,0.6
						C225.6,15,224.9,15,224.3,15z"/>
				</g>
				<g>
					<path class="st0" d="M200.8,36.4c-0.6-0.6-1.4-2.6-1.7-3.5l-0.4-1h1.1c0.4,0,1.5-0.8,2.3-1.4s1.6-0.9,2.4-0.9
						c2.1,0,3.6,1.8,3.7,1.9l-1,1.2c-0.7-0.3-1.6-0.7-2.3-0.7c-0.4,0-0.8,0.1-1.1,0.4c-0.9,0.7-1.8,1.1-2.4,1.3
						c0.2,0.5,0.4,1.3,0.6,2l1.2,3.4L200.8,36.4z"/>
					<path class="st2" d="M200.8,36.4c-0.6-0.6-1.4-2.6-1.7-3.5l-0.4-1h1.1c0.4,0,1.5-0.8,2.3-1.4s1.6-0.9,2.4-0.9
						c2.1,0,3.6,1.8,3.7,1.9l-1,1.2c-0.7-0.3-1.6-0.7-2.3-0.7c-0.4,0-0.8,0.1-1.1,0.4c-0.9,0.7-1.8,1.1-2.4,1.3
						c0.2,0.5,0.4,1.3,0.6,2l1.2,3.4L200.8,36.4z"/>
				</g>
				<g>
					<path class="st0" d="M207.6,42.8c-0.6,0-4.2-2-5.7-5.2l1.3-0.9c0.5,0.6,1.3,1.2,2.1,1.6c0.2-0.6,0.5-1.3,1-1.9l2-2.3l-0.7,3
						c0,0-0.5,2.3,0.6,4.5l0.3,0.5l-0.6,0.6L207.6,42.8z"/>
					<path class="st2" d="M207.6,42.8c-0.6,0-4.2-2-5.7-5.2l1.3-0.9c0.5,0.6,1.3,1.2,2.1,1.6c0.2-0.6,0.5-1.3,1-1.9l2-2.3l-0.7,3
						c0,0-0.5,2.3,0.6,4.5l0.3,0.5l-0.6,0.6L207.6,42.8z"/>
				</g>
				<g>
					<path class="st0" d="M208.9,36.5L208.9,36.5c0-0.1,0.5-2.6-1.6-5l-0.2-0.2v-0.2c0-0.3,0.1-0.6,0.4-0.9c0.3-0.4,0.8-0.6,1.2-0.6
						c0.1,0,0.2,0,0.3,0l0.3,0.1l0.2,0.3c1.6,2.4,1.9,4.7,0.9,7L208.9,36.5z"/>
					<path class="st2" d="M208.9,36.5L208.9,36.5c0-0.1,0.5-2.6-1.6-5l-0.2-0.2v-0.2c0-0.3,0.1-0.6,0.4-0.9c0.3-0.4,0.8-0.6,1.2-0.6
						c0.1,0,0.2,0,0.3,0l0.3,0.1l0.2,0.3c1.6,2.4,1.9,4.7,0.9,7L208.9,36.5z"/>
				</g>
				<g>
					<path class="st0" d="M216.8,56.9c0-0.1-0.1-2.3-2.2-3.6c-0.1,0.4-0.3,0.8-0.8,1.1l-1.2,0.7v-1.4c0-0.1-0.1-1.6-1.8-2.5
						c-0.1,0-2.3-1-2.7-3c-0.3-1.3,0.3-2.6,1.5-4l1.3,0.9c0,0-0.7,1.3-0.2,2.4c0.3,0.7,1.2,1.2,2.5,1.5l0,0c0.9,0.2,4.7,1.9,5.8,4.3
						c0.4,1,0.6,2.5-0.8,4.2l-1.4,1.5L216.8,56.9z"/>
					<path class="st2" d="M216.8,56.9c0-0.1-0.1-2.3-2.2-3.6c-0.1,0.4-0.3,0.8-0.8,1.1l-1.2,0.7v-1.4c0-0.1-0.1-1.6-1.8-2.5
						c-0.1,0-2.3-1-2.7-3c-0.3-1.3,0.3-2.6,1.5-4l1.3,0.9c0,0-0.7,1.3-0.2,2.4c0.3,0.7,1.2,1.2,2.5,1.5l0,0c0.9,0.2,4.7,1.9,5.8,4.3
						c0.4,1,0.6,2.5-0.8,4.2l-1.4,1.5L216.8,56.9z"/>
				</g>
				<g>
					<path class="st0" d="M220.8,54.3c-0.7,0-1.4-0.2-2.1-0.7l0.4-1c-1.2-0.6-2.3-1.4-2.7-2.6l-1-3.1l2.3,2.3c0,0,2.1,2.1,5.4,2.1
						h1.4l-0.7,1.2C223.7,52.6,222.7,54.3,220.8,54.3z"/>
					<path class="st2" d="M220.8,54.3c-0.7,0-1.4-0.2-2.1-0.7l0.4-1c-1.2-0.6-2.3-1.4-2.7-2.6l-1-3.1l2.3,2.3c0,0,2.1,2.1,5.4,2.1
						h1.4l-0.7,1.2C223.7,52.6,222.7,54.3,220.8,54.3z"/>
				</g>
				<g>
					<path class="st0" d="M221.9,51.9c-1.2,0-3.7-0.5-6.2-4.2l1.1-1.1c0,0,2.5,1.7,5.4,1.7c1.8,0,3.4-0.7,4.8-1.9l1.3,0.9
						c-0.1,0.1-1.7,3.5-5.5,3.8l0.2,0.8C222.6,51.9,222.2,51.9,221.9,51.9z M222.8,51L222.8,51z"/>
					<path class="st2" d="M221.9,51.9c-1.2,0-3.7-0.5-6.2-4.2l1.1-1.1c0,0,2.5,1.7,5.4,1.7c1.8,0,3.4-0.7,4.8-1.9l1.3,0.9
						c-0.1,0.1-1.7,3.5-5.5,3.8l0.2,0.8C222.6,51.9,222.2,51.9,221.9,51.9z M222.8,51L222.8,51z"/>
				</g>
				<g>
					<path class="st0" d="M223.3,45.5c-0.8-2.4-0.3-3.4-0.2-3.7l1.3,0.8l-0.7-0.4l0.7,0.4c0,0-0.3,0.7,0.3,2.4L223.3,45.5z"/>
					<path class="st2" d="M223.3,45.5c-0.8-2.4-0.3-3.4-0.2-3.7l1.3,0.8l-0.7-0.4l0.7,0.4c0,0-0.3,0.7,0.3,2.4L223.3,45.5z"/>
				</g>
				<g>
					<path class="st0" d="M223.4,45.5c-0.7-2.1-0.4-3.2-0.2-3.6l0.2-0.4l0.7-0.1h0.5l0.5,0.8l-0.1,0.4c0,0-0.3,0.8,0.3,2.4l0.3,1
						l-2,0.2L223.4,45.5z"/>
					<path class="st2" d="M223.4,45.5c-0.7-2.1-0.4-3.2-0.2-3.6l0.2-0.4l0.7-0.1h0.5l0.5,0.8l-0.1,0.4c0,0-0.3,0.8,0.3,2.4l0.3,1
						l-2,0.2L223.4,45.5z"/>
				</g>
				<g>
					<path class="st0" d="M225.6,45.3c-0.2-0.2-1.2-1.3-1-3.5l0.1-0.6l1.9-0.3l-0.1,1c-0.1,1.5,0.5,2.1,0.5,2.2l0.8,0.9l-1.1,0.4
						l-0.8,0.3L225.6,45.3z"/>
					<path class="st2" d="M225.6,45.3c-0.2-0.2-1.2-1.3-1-3.5l0.1-0.6l1.9-0.3l-0.1,1c-0.1,1.5,0.5,2.1,0.5,2.2l0.8,0.9l-1.1,0.4
						l-0.8,0.3L225.6,45.3z"/>
				</g>
			</g>
		</g>
		<g>
			<circle class="st12" cx="217.6" cy="17" r="5.5"/>
			<g>
				<g>
					<circle class="st13" cx="217.6" cy="17.3" r="5.1"/>
				</g>
				<path class="st14" d="M222.7,16.6c0,0.2-0.1,0.4-0.5,0.9c-0.3,0.3-0.7,0.7-1.2,1c0-0.2,0-0.3,0-0.5c0-0.6,0.1-1.2,0.2-1.8
					c0-0.1,0-0.2,0.1-0.3c0.1-0.6,0.3-1.3,0.1-2.1l0,0c-0.1-0.2-0.2-0.3-0.3-0.5c-0.2-0.2-0.4-0.4-0.7-0.5c0.3,0.3,0.5,0.7,0.6,1.1
					c0.2,0.7,0,1.3-0.1,1.9c0,0.1,0,0.2-0.1,0.3c-0.1,0.6-0.2,1.1-0.2,1.8c0,0.3,0,0.5,0,0.7c-0.3,0.1-0.6,0.3-1,0.4
					c-0.1-0.6-0.2-1.3-0.5-2.1c-0.7-2.8-1.6-4-2.3-4.6c-0.1-0.1-0.2-0.2-0.3-0.2s-0.2,0-0.3,0.1c0.1,0.1,0.2,0.2,0.4,0.3
					c0.6,0.6,1.5,2,2.2,4.5c0.2,0.8,0.4,1.5,0.5,2.1h-0.1c-0.4,0.1-0.8,0.2-1.2,0.3c-0.1-0.3-0.2-0.6-0.3-0.9
					c-0.4-1-1.4-1.6-2.5-2.3c-0.3-0.2-0.6-0.4-1-0.6c-0.4-0.3-0.8-0.8-0.9-1.2c-0.1,0.1-0.1,0.2-0.2,0.4c0,0.1,0.1,0.2,0.1,0.2
					c0.2,0.3,0.5,0.6,0.8,0.9c0.3,0.2,0.7,0.4,1,0.7c1.1,0.7,2,1.3,2.4,2.2c0.1,0.3,0.2,0.6,0.3,0.8c-1.8,0.3-3.4,0.1-4.4-0.5
					c-0.1,0-0.1-0.1-0.2-0.1c-0.1-0.1-0.3-0.2-0.4-0.3c0,0.1,0.1,0.2,0.1,0.3c0.2,0.2,0.4,0.4,0.7,0.5c0.2,0.1,0.3,0.1,0.5,0.2
					c0.1,0,0.1,0,0.2,0.1c0.5,0.1,1,0.2,1.6,0.2s1.3,0,2-0.1c0,0.1,0,0.3,0,0.4l0,0c0,0.4,0,0.7-0.2,0.9c-0.1,0.3-0.8,0.7-1.4,0.8
					c-0.2,0-0.3,0-0.4,0.1c0.1,0,0.2,0.1,0.3,0.1c0.2,0,0.4,0,0.5-0.1c0.7-0.2,1-0.5,1.1-0.6c0.2-0.3,0.3-0.7,0.3-1.2l0,0
					c0-0.1,0-0.3,0-0.5c0.4-0.1,0.8-0.2,1.2-0.3h0.1c0.1,1,0.1,1.7,0.1,2.1c0,0.2-0.1,0.4-0.2,0.5c0.1,0,0.2-0.1,0.3-0.1
					c0.1-0.1,0.1-0.2,0.2-0.3c0.1-0.5,0.1-1.2,0-2.2c0.4-0.1,0.7-0.3,1-0.4c0,0.2,0.1,0.4,0.2,0.6c0,0.1,0.1,0.1,0.1,0.2
					c0.1,0.1,0.1,0.2,0.2,0.3c0.1,0.1,0.2,0.1,0.3,0.1s0.1,0,0.2,0c0.1-0.1,0.1-0.2,0.2-0.2c-0.1,0-0.2,0-0.2,0
					c-0.1,0-0.3-0.1-0.4-0.3c0-0.1-0.1-0.1-0.1-0.2c-0.1-0.2-0.2-0.4-0.2-0.7c0.1-0.1,0.2-0.1,0.3-0.2c0.4-0.3,0.8-0.6,1.1-1
					c0.2-0.3,0.3-0.6,0.3-0.8C222.7,16.8,222.7,16.7,222.7,16.6z"/>
				<g>
					<g>
						<path class="st15" d="M217.6,22.5c-2.9,0-5.3-2.4-5.3-5.3s2.4-5.3,5.3-5.3c2.9,0,5.3,2.4,5.3,5.3S220.5,22.5,217.6,22.5z
							 M217.6,12.3c-2.7,0-5,2.2-5,5s2.2,5,5,5c2.7,0,5-2.2,5-5S220.4,12.3,217.6,12.3z"/>
					</g>
				</g>
			</g>
			<path class="st16" d="M226.5,29.2"/>
			<path class="st17" d="M227.4,36.1c0,0-0.1-2.5-2.3-2.9c0.1-4-4.9-7.5-6.8-6c-2.2-2.4-8.8-1.3-11.1,3.2c-4.5-2.4-6,1.7-8.2,1.9
				c0,0,2,8.6,10.1,11.6c-1.4-3.4-0.2-6.2-0.2-6.2c-0.2,5.2,0.6,4.8,2.3,5.6c2,3.5,5.8,1.6,9.8,4.1c0.8-1.6,2.9-1.9,3.8-6.3
				c0.4-1.8,3-0.4,4.5-3.5C227.5,35.3,228,38.2,227.4,36.1z"/>
			<path class="st18" d="M217.8,3.8c-0.2,0.3-2.2,3.7-0.5,7.5c1.6,3.4,5,4.3,5.4,4.4c0,0,1.1,4.5-3.9,6.6c0,0,5.5-0.1,6.3-4.9
				c0,0,0.2-2.8,0.9-3.7c-1-0.1-2.6-0.4-4.1-1.4C217.9,9.6,217.8,4.4,217.8,3.8z"/>
			<g>
				<path class="st12" d="M207.3,37.8c0.4-0.8,0.6-1.6,0.6-2.3s-0.2-1.6-0.7-2l0,0c-0.4-0.3-0.8-0.5-1.4-0.5c-0.5,0-1,0.2-1.6,0.4
					c-0.5,0.2-1.1,0.4-1.6,0.5c-0.6,0.1-1.1,0.1-1.7,0c0.6,0,1.1,0,1.7-0.2c0.5-0.2,1-0.4,1.5-0.7c0.5-0.2,1-0.5,1.7-0.6
					c0.6-0.1,1.3,0.2,1.8,0.6l0,0c0.4,0.3,0.7,0.7,0.8,1.2c0.2,0.4,0.2,0.9,0.2,1.4C208.4,36.5,207.9,37.3,207.3,37.8z"/>
			</g>
			<g>
				<path class="st12" d="M207.9,36.9c-0.1-0.6-0.2-1.3-0.4-1.8c-0.1-0.3-0.3-0.4-0.4-0.4c-0.2,0-0.4,0.1-0.6,0.3l0.1-0.1
					c-0.2,0.3-0.4,0.5-0.6,0.6c-0.2,0.2-0.5,0.3-0.7,0.4c-0.5,0.2-1.2,0.1-1.6-0.2c0.3,0,0.5,0,0.7-0.1s0.4-0.1,0.6-0.3
					c0.2-0.1,0.4-0.3,0.5-0.4c0.2-0.2,0.3-0.3,0.5-0.5v-0.1l0,0c0.3-0.2,0.6-0.4,1.1-0.4c0.2,0,0.5,0.2,0.6,0.3
					c0.1,0.2,0.2,0.3,0.2,0.5c0.1,0.3,0.1,0.7,0.1,1C208,36.3,208,36.6,207.9,36.9z"/>
			</g>
			<g>
				<path class="st12" d="M219.6,36c-0.9,0.2-2,0-2.8-0.7c-0.4-0.3-0.7-0.7-1-1s-0.6-0.7-0.9-1c-0.6-0.6-1.3-1.2-2.1-1.5
					c-0.4-0.1-0.8-0.2-1.2,0s-0.7,0.5-1,0.9c0.1-0.5,0.4-0.9,0.8-1.2c0.4-0.3,1-0.4,1.5-0.3c1,0.2,1.8,0.9,2.5,1.5
					c0.3,0.3,0.7,0.7,0.9,1.1c0.3,0.4,0.5,0.7,0.8,1C217.8,35.5,218.7,35.9,219.6,36z"/>
			</g>
			<g>
				<path class="st12" d="M216.5,36c0,0-1.2-0.6-2-1.5c0,0-1-0.6-1.5-0.7c-0.2,0.8-0.4,2.2,0.7,2.6C214.8,36.8,216.2,36.5,216.5,36z
					"/>
				<g>
					<path class="st12" d="M217.4,36c-0.6,0.1-1.2,0.1-1.7-0.2c-0.3-0.1-0.5-0.3-0.7-0.5s-0.3-0.4-0.6-0.6c-0.4-0.4-0.8-0.6-1.3-0.8
						s-1-0.1-1.6,0.1c0.4-0.4,1.1-0.6,1.7-0.5c0.6,0.1,1.1,0.4,1.6,0.8c0.2,0.2,0.4,0.5,0.6,0.6c0.2,0.2,0.3,0.4,0.6,0.5
						C216.3,35.8,216.8,36,217.4,36z"/>
				</g>
			</g>
			<g>
				<path class="st12" d="M222,39.2c-0.5-0.1-0.9-0.3-1.3-0.5c-0.4-0.3-0.8-0.6-1-1.1s-0.3-1-0.2-1.5s0.4-0.9,0.8-1.2
					c-0.2,0.4-0.4,0.8-0.4,1.3c0,0.4,0,0.8,0.2,1.2C220.6,38.1,221.3,38.8,222,39.2z"/>
			</g>
			<path class="st12" d="M222.5,33.6c-0.8-0.8-2-0.9-2.8-0.9c-0.4,0-0.7,0-1-0.1c-2.1-0.6-3.7-2.3-4.4-3l0,0c-0.7-0.7-1.7-1-2.8-1
				c-1.9,0-4.2,2.3-4.3,2.3l-0.1-1.3c1.4-2.3,3.3-4.3,5.7-4.3c2.3,0,4.4,1.1,5.1,1.5c0.5-0.2,1-0.3,1.4-0.3c2.7,0,4.4,3.4,4.5,3.6
				l0.2,0.4l-0.3,0.3c-0.4,0.4-0.5,1.7-0.5,2.5v1.4L222.5,33.6z"/>
			<g>
				<path class="st19" d="M222.8,32.9c-1-0.9-2.2-0.9-3-0.9c-0.3,0-0.6,0-0.8-0.1c-1.9-0.6-3.5-2.1-4.1-2.8
					c-0.8-0.8-1.8-1.2-2.9-1.2c-1.5,0-2.9,0.7-3.6,1.1c1.3-1.9,3-2.9,5.1-2.9c2,0,3.8,1,4.4,1.3c0.2,0.1,0.2,0.1,0.2,0.1
					c0.5-0.3,1-0.4,1.4-0.4c2.1,0,3.7,2.7,3.9,3.1C222.9,30.9,222.8,32.5,222.8,32.9z"/>
				<path class="st0" d="M213.5,26.3c2,0,3.8,0.9,4.4,1.3c0.2,0.1,0.2,0.1,0.3,0.1l0,0l0,0l0,0l0,0c0.4-0.3,0.9-0.4,1.3-0.4
					c2,0,3.5,2.4,3.8,3c-0.5,0.6-0.6,1.8-0.6,2.5c-1-0.8-2.1-0.8-2.9-0.8c-0.3,0-0.6,0-0.8-0.1c-1.9-0.6-3.5-2.1-4-2.7l0,0l0,0
					c-0.8-0.8-1.8-1.2-3-1.2c-1.3,0-2.5,0.5-3.2,0.9C210,27.1,211.6,26.3,213.5,26.3 M213.5,26.1c-1.8,0-3.8,0.7-5.4,3.3
					c0,0,1.9-1.3,3.9-1.3c1,0,2,0.3,2.8,1.1c0.1,0.1,1.8,2.2,4.1,2.8c0.7,0.2,2.6-0.2,3.9,1.1c0-0.2,0-2.2,0.7-2.9
					c0,0-1.6-3.2-4-3.2c-0.5,0-0.9,0.1-1.4,0.4l0,0C218,27.5,216,26.1,213.5,26.1L213.5,26.1z"/>
			</g>
			<path class="st20" d="M221.4,39.9c0,0,4.3,0.8,6.1-4.2c0,0,1.4-4.7-4.9-8.2c-2.5-1.3-5.1-1.2-6.7-1.9c-4.9-0.4-6-3.7-6.8-7
				c1-0.2,1.2-0.9,1.4-1.2c0.3-0.5,1.2-2.2,2.2-2.4c0,0-1.7,4,1.8,6.6c1.9,1.3,4.8,1.5,8.3,2.2c3.6,1,9.5,2.8,10.8,8.9
				c0.1,0.6,0.9,7.3-5.2,10c-0.1,0-3.8,1.2-4.9,0.7C223.1,43,219.8,42.4,221.4,39.9z"/>
			<g>
				<path class="st12" d="M221.4,36.9c0.1-0.4,0.4-0.9,0.7-1.2s0.8-0.5,1.2-0.7c0.9-0.3,1.9-0.3,2.7,0.1c-0.9,0-1.7,0-2.5,0.3
					c-0.4,0.1-0.8,0.3-1.1,0.5C222,36.3,221.7,36.6,221.4,36.9z"/>
			</g>
			<g>
				<path class="st12" d="M222.9,37.4c0.2-0.6,0.7-1,1.3-1.2c0.3-0.1,0.6-0.1,0.9-0.1c0.3,0,0.6,0.1,0.8,0.3c-0.3,0-0.6,0-0.8,0
					c-0.3,0-0.5,0.1-0.8,0.2c-0.3,0.1-0.5,0.2-0.7,0.3C223.4,37.1,223.2,37.2,222.9,37.4z"/>
			</g>
			<g>
				<path class="st21" d="M236.5,31.7c-1.7,8.7-7.7,14.4-13.4,14.2c-1,0-3.8-0.3-7-3.2c0,0,0.7-2.5,3.4-2.7c2.6,0.5,1.7,2,5,1.8
					c1.1-0.3,2.2-0.8,3.4-1.4C232.6,38,235.3,34,236.5,31.7z"/>
			</g>
			<g>
				<path class="st0" d="M215.2,37.2c0,0-3,4.8,2.7,7.7c0-0.3,0.9-4.3,4.6-3.6c0.3-0.2-2.1-2.6-3.9-2.9"/>
				<path class="st12" d="M215.2,37.2c-0.7,1.4-0.9,3-0.3,4.4c0.6,1.4,1.8,2.4,3.2,3l-0.4,0.3c0-0.3,0-0.4,0.1-0.5
					c0-0.1,0.1-0.3,0.1-0.4c0.1-0.3,0.2-0.5,0.3-0.8c0.3-0.5,0.6-1,1.1-1.4c0.4-0.4,1-0.7,1.6-0.8s1.2-0.1,1.8,0l-0.2,0.1
					c-0.1,0.1-0.1,0.2-0.1,0.2l0,0v-0.1c0-0.1-0.1-0.1-0.2-0.2c-0.1-0.2-0.3-0.3-0.4-0.5c-0.3-0.3-0.6-0.6-0.9-0.8
					c-0.6-0.5-1.3-1-2.1-1.3c0.9,0.1,1.7,0.5,2.4,1c0.4,0.2,0.7,0.5,1,0.8c0.2,0.1,0.3,0.3,0.5,0.5c0.1,0.1,0.2,0.2,0.2,0.3
					s0.1,0.1,0.1,0.2c0,0,0,0.1,0,0.2c0,0.1,0,0.2-0.2,0.4l-0.1,0.1h-0.1c-0.5-0.1-1-0.1-1.5,0.1c-0.5,0.1-0.9,0.4-1.3,0.7
					c-0.4,0.3-0.7,0.7-0.9,1.2c-0.1,0.2-0.2,0.5-0.3,0.7c0,0.1-0.1,0.2-0.1,0.4c0,0.1-0.1,0.3-0.1,0.3l-0.4,0.3
					c-1.4-0.7-2.7-1.9-3.3-3.4C214,40.2,214.4,38.5,215.2,37.2z"/>
			</g>
			<path class="st22" d="M220.2,50.2"/>
			<g>
				<path class="st12" d="M216.7,57.8c0.2-2.3-1.3-3.7-2.2-4.3c-0.2,0.9-1,1.4-1.1,1.5l-0.7,0.5l-0.1-0.8c-0.2-2.1-1.1-2.6-2.2-3.3
					c-0.9-0.5-1.8-1.1-2.4-2.6l0,0l0,0c-0.3-1.3-0.1-2.3,0.4-3c0.7-0.9,1.7-1,2.2-1.1h0.2c0.2,0,0.5-0.1,0.7-0.1
					c1.6,0,2.9,0.9,4.4,1.9c1.3,0.9,2.7,1.9,4.4,2.1c0.5,0,1,0.1,1.5,0.1c3.2,0,4.3-1.2,5-1.8c0.6-0.5,2.1-1.8,2.1-1.8l-0.3,1.3
					c-0.9,3.1-4.3,5-5.1,5.3l0.8-0.1l-0.5,0.9c-1.1,1.9-2.5,2.2-3.3,2.2c-0.4,0-0.8-0.1-1.1-0.2c0.4,2-1.1,3.1-1.8,3.8l-1,0.8
					L216.7,57.8z"/>
			</g>
			<g>
				<path class="st0" d="M210.9,44.9c0,0.1-3.1-0.2-2.4,3.6c1.1,3,4.2,1.8,4.6,6c0,0,1.2-0.8,0.9-1.9c0,0,3.4,1.5,3.1,5.2
					c0.9-0.7,2.7-2,1.3-4.7c0.6,0.9,3.3,2,5-1c-1.1,0.2-2.4,0.1-3.2-0.7c0.8,0.4,1.9,0.6,3.5-0.3c0,0-1.7,0.1-2.1-0.4
					c0.4,0,4.4,0.9,6.6-4.6c-1.9,1.5-2,3.4-7.9,2.9C216.4,48.4,214.2,44.3,210.9,44.9z"/>
			</g>
			<g>
				<path class="st12" d="M212,48.1c-0.2,0-1.1-0.2-1.8-1c-0.5-0.5-1.1-1.5-1-3.2v-0.4l0.4,0.1c0.8,0.2,2.3,1.2,2.4,3.1
					c0,0.3,0.2,0.6,0.3,0.8l0.1,0.2l-0.1,0.2C212.2,48,212.1,48.1,212,48.1z"/>
				<path class="st23" d="M209.5,44c0,0,2.1,0.6,2.1,2.8c0,0.3,0.2,0.7,0.4,1C211.9,47.8,209.3,47.2,209.5,44z"/>
				<g>
					<path class="st12" d="M214.4,46.2c-0.1,0-0.2,0-0.3-0.1c-0.2,0-0.4-0.1-0.5-0.1s-0.1,0-0.2,0c-0.1,0-0.3,0-0.4,0
						c-0.9,0-1.9-0.7-2.9-1.9l-0.3-0.4l0.5-0.2c0,0,0.4-0.2,1.1-0.1c0.9,0,2.2,0.4,3.5,2.1c0.2,0.2,0.1,0.4,0.1,0.5
						C214.7,46.1,214.6,46.2,214.4,46.2z"/>
					<path class="st24" d="M210.3,43.9c0,0,2.2-0.8,4.1,1.8c0.2,0.3-0.6-0.2-1.1,0C212.5,45.8,211.5,45.4,210.3,43.9z"/>
				</g>
				<g>
					<path class="st12" d="M207.3,48.5c-0.4-0.1-0.5-1.2-0.5-1.2c-0.1-0.8,0.1-2.4,2-3.7l0.3-0.2l0.2,0.4c0.3,0.7,0.5,2.3-0.9,3.5
						c-0.3,0.2-0.5,0.6-0.6,1l-0.1,0.3L207.3,48.5L207.3,48.5z"/>
					<path class="st23" d="M209,43.9c0,0,0.8,1.8-0.8,3.1c-0.3,0.3-0.6,0.7-0.7,1.2C207.3,48.1,206.3,45.6,209,43.9z"/>
				</g>
				<g>
					<path class="st12" d="M209.3,44.6c-0.7-0.1-1.2-0.8-1.1-1.5s0.8-1.2,1.5-1.1s1.2,0.8,1.1,1.5C210.7,44.2,210,44.8,209.3,44.6z"
						/>
					<circle class="st25" cx="209.5" cy="43.3" r="1"/>
				</g>
			</g>
			<path class="st12" d="M219.2,43.6c0,0-0.3,0.4-0.4,1c0,0,9.2,4,14.8-7.1C234.4,35.8,228.7,47.4,219.2,43.6z"/>
			<path class="st26" d="M225.8,41.8c0,0-0.2,2.3,0.9,3c0,0-1.7,0.7-2.8,0.7c0,0-1.2-2-0.3-3.4L225.8,41.8z"/>
			<path class="st26" d="M229,40l1.5-1c0,0,0.5,1.4,1.5,1.6l-1.2,1.6C230.8,42.2,229.1,41.5,229,40z"/>
			<path class="st12" d="M210.1,37.6c0,0-0.5,2.9,2.1,4.3c0,0-0.1-2,0.5-2.7c0,0-0.4,3,2.2,4.6c0.1,0,1.7,1.1,1.7,1.4
				c0,0-1.1-0.3-1.7-0.3c-0.6-0.6-1.9-1.7-2.8-1.7C211,42.4,209.3,41.8,210.1,37.6z"/>
			<path class="st12" d="M217.1,37.9c0,0,2.8,1.1,4,2.7c0,0-1.6,0-2.3,1.1c0,0,0.5-1,1-1.4L217.1,37.9z"/>
			<path class="st12" d="M226.2,40.3c0,0,10.4-5.6,3.2-12.7c0,0,4,1.8,3.5,7.6C232.9,35.3,230.3,38.9,226.2,40.3z"/>
			<path class="st12" d="M210.3,19.1c0,0,0.5,4.9,7.8,5.8C218.1,24.9,211,25.7,210.3,19.1z"/>
			<path class="st12" d="M219,10.7c0,0,2.3,3.1,5.9,3.5C225,14.3,220.5,14.9,219,10.7z"/>
			<path class="st12" d="M207.6,32.1c0,0-2.4-2.9-5-0.9c0,0-1.8,1.6-2.8,1.6c0,0,1,2.7,1.5,3.2c0,0-0.9-2.5-0.8-2.9
				c0.1,0.1,1.5-0.2,2.9-1.3C204.6,30.7,206.2,31.4,207.6,32.1z"/>
			<path class="st12" d="M206.7,37.1c0,0-0.6,2.6,0.7,5c-0.1,0.1-3.5-1.6-5-4.7c1,1.1,2.4,1.9,3.4,2.2
				C205.7,39.2,205.9,38.1,206.7,37.1z"/>
			<path class="st12" d="M207.8,31.1c0-0.1,0.4-0.7,0.9-0.6c1,1.6,2,3.7,0.8,6.2C209.5,36.8,210.2,33.9,207.8,31.1z"/>
			<path class="st12" d="M210.1,44.9c0,0-2.1,4,2.9,5c0-0.1,8.2,3,4.5,7.2c0,0.1,0-3.5-3.8-4.9c0,0.1,0.4,1.2-0.4,1.7
				c0,0,0-2.1-2.3-3.2C211.1,50.6,206.5,48.8,210.1,44.9z"/>
			<path class="st12" d="M217,49.9c0,0,2.3,2.3,5.9,2.3c0,0-1.4,2.4-4,0.8c0,0,2,0.4,2.8-0.3C221,52.8,217.5,51.8,217,49.9z"/>
			<path class="st12" d="M227.4,47.1c0,0-1.9,4-6.4,3.2c0,0,0.5,0.9,1.7,0.9c0,0-3.1,1.1-6.4-3.7C216.2,47.4,222.5,51.8,227.4,47.1z
				"/>
			<path class="st27" d="M223.7,42.3c0,0-0.5,0.8,0.2,3"/>
			<path class="st0" d="M224,45.4c-0.7-2.2-0.2-3-0.2-3h0.3l0,0c0,0-0.4,1,0.3,3H224z"/>
			<path class="st0" d="M226.1,44.9c0,0-1-0.9-0.8-2.8l0.4-0.1c-0.1,1.9,0.7,2.8,0.7,2.8L226.1,44.9z"/>
			<path class="st0" d="M230.1,39.5c0.1-0.1,0.2-0.1,0.3-0.2c0.1,0.2,0.2,0.4,0.4,0.7c0.3,0.4,0.6,0.6,0.9,0.7
				c-0.1,0.1-0.1,0.2-0.2,0.3c-0.2-0.1-0.6-0.4-0.9-0.7C230.4,40,230.2,39.8,230.1,39.5z"/>
			<path class="st0" d="M230.7,40.3"/>
			<path class="st0" d="M229.2,40.1c0.1-0.1,0.2-0.1,0.3-0.2c0.1,0.2,0.2,0.7,0.6,1.1c0.3,0.4,0.7,0.6,0.9,0.7
				c-0.1,0.1-0.1,0.2-0.2,0.3c-0.3-0.1-0.5-0.3-0.6-0.4c-0.2-0.2-0.3-0.3-0.4-0.3c-0.1-0.1-0.1-0.2-0.2-0.2
				c-0.1-0.1-0.2-0.2-0.3-0.4C229.3,40.6,229.2,40.4,229.2,40.1z"/>
		</g>
		<path class="st18" d="M237.3,30.5"/>
	</g>
</g>
</svg>
